<svg xmlns="http://www.w3.org/2000/svg" width="176" height="36" viewBox="0 0 176 36" fill="none"><path d="M0.745211 28.826H3.97921V6.874H0.745211V0.699998H15.7882C17.4215 0.699998 18.8589 0.928664 20.1002 1.386C21.3742 1.84333 22.4359 2.464 23.2852 3.248C24.1672 4.032 24.8205 4.97933 25.2452 6.09C25.7025 7.168 25.9312 8.344 25.9312 9.618V10.206C25.9312 12.166 25.3759 13.734 24.2652 14.91C23.1872 16.086 21.8152 16.9027 20.1492 17.36V18.242C21.8152 18.6993 23.1872 19.5323 24.2652 20.741C25.3759 21.917 25.9312 23.485 25.9312 25.445V26.033C25.9312 27.307 25.7025 28.4993 25.2452 29.61C24.8205 30.688 24.1672 31.6353 23.2852 32.452C22.4359 33.236 21.3742 33.8567 20.1002 34.314C18.8589 34.7713 17.4215 35 15.7882 35H0.745211V28.826ZM10.4472 28.826H15.1512C16.5232 28.826 17.6339 28.532 18.4832 27.944C19.3325 27.356 19.7572 26.376 19.7572 25.004V24.71C19.7572 23.338 19.3325 22.358 18.4832 21.77C17.6339 21.182 16.5232 20.888 15.1512 20.888H10.4472V28.826ZM10.4472 14.714H15.1512C16.5232 14.714 17.6339 14.4363 18.4832 13.881C19.3325 13.293 19.7572 12.313 19.7572 10.941V10.647C19.7572 9.275 19.3325 8.31133 18.4832 7.756C17.6339 7.168 16.5232 6.874 15.1512 6.874H10.4472V14.714ZM49.3191 27.65H37.6571L35.9911 35H29.2291L37.4121 0.699998H49.5641L57.7471 35H50.9851L49.3191 27.65ZM39.0291 21.476H47.8981L43.9291 3.934H43.0471L39.0291 21.476ZM62.5151 0.699998H68.9831V28.826H84.5651V35H62.5151V0.699998ZM91.146 0.699998H115.842V6.874H106.728V35H100.26V6.874H91.146V0.699998ZM120.855 14.028C120.855 9.58533 121.966 6.139 124.187 3.689C126.441 1.239 129.544 0.0139977 133.497 0.0139977C137.45 0.0139977 140.537 1.239 142.758 3.689C145.012 6.139 146.139 9.58533 146.139 14.028V21.672C146.139 26.2453 145.012 29.7243 142.758 32.109C140.537 34.4937 137.45 35.686 133.497 35.686C129.544 35.686 126.441 34.4937 124.187 32.109C121.966 29.7243 120.855 26.2453 120.855 21.672V14.028ZM133.497 29.806C134.673 29.806 135.653 29.6263 136.437 29.267C137.221 28.875 137.858 28.336 138.348 27.65C138.838 26.964 139.181 26.1473 139.377 25.2C139.573 24.2527 139.671 23.2073 139.671 22.064V13.636C139.671 12.558 139.557 11.5453 139.328 10.598C139.099 9.65067 138.74 8.834 138.25 8.148C137.76 7.462 137.123 6.923 136.339 6.531C135.555 6.10633 134.608 5.894 133.497 5.894C132.386 5.894 131.439 6.10633 130.655 6.531C129.871 6.923 129.234 7.462 128.744 8.148C128.254 8.834 127.895 9.65067 127.666 10.598C127.437 11.5453 127.323 12.558 127.323 13.636V22.064C127.323 23.2073 127.421 24.2527 127.617 25.2C127.813 26.1473 128.156 26.964 128.646 27.65C129.136 28.336 129.773 28.875 130.557 29.267C131.341 29.6263 132.321 29.806 133.497 29.806ZM168.155 31.766H169.037V0.699998H175.505V35H162.863L158.845 3.934H157.963V35H151.495V0.699998H164.137L168.155 31.766Z" fill="white"></path></svg>