<svg xmlns="http://www.w3.org/2000/svg" width="174" height="36" viewBox="0 0 174 36" fill="none"><path d="M0.284211 31.178H3.22421V4.522H0.284211V0.699998H14.1512C15.7845 0.699998 17.2219 0.928664 18.4632 1.386C19.7372 1.84333 20.7989 2.464 21.6482 3.248C22.5302 4.032 23.1835 4.97933 23.6082 6.09C24.0655 7.168 24.2942 8.344 24.2942 9.618V10.206C24.2942 11.1533 24.1472 12.019 23.8532 12.803C23.5592 13.587 23.1509 14.2893 22.6282 14.91C22.1055 15.5307 21.4849 16.0697 20.7662 16.527C20.0802 16.9517 19.3289 17.2783 18.5122 17.507V18.095C20.1455 18.5523 21.5175 19.4343 22.6282 20.741C23.7389 22.015 24.2942 23.583 24.2942 25.445V26.033C24.2942 27.307 24.0655 28.4993 23.6082 29.61C23.1835 30.688 22.5302 31.6353 21.6482 32.452C20.7989 33.236 19.7372 33.8567 18.4632 34.314C17.2219 34.7713 15.7845 35 14.1512 35H0.284211V31.178ZM7.34021 31.178H13.8572C15.7845 31.178 17.3525 30.7043 18.5612 29.757C19.7699 28.777 20.3742 27.4377 20.3742 25.739V25.445C20.3742 23.681 19.8025 22.2927 18.6592 21.28C17.5159 20.2347 15.9642 19.712 14.0042 19.712H7.34021V31.178ZM7.34021 15.89H14.0042C15.9642 15.89 17.5159 15.3837 18.6592 14.371C19.8025 13.3583 20.3742 11.97 20.3742 10.206V9.912C20.3742 8.246 19.7699 6.93933 18.5612 5.992C17.3525 5.012 15.7845 4.522 13.8572 4.522H7.34021V15.89ZM49.8381 26.474H35.1381L32.6391 35H28.2291L38.6171 0.699998H46.3591L56.7471 35H52.3371L49.8381 26.474ZM42.1941 2.464L36.2651 22.652H48.7111L42.7821 2.464H42.1941ZM61.7601 0.699998H65.8761V31.178H83.8101V35H61.7601V0.699998ZM90.44 0.699998H114.548V4.522H104.552V35H100.436V4.522H90.44V0.699998ZM120.443 14.028C120.443 9.58533 121.505 6.139 123.628 3.689C125.751 1.239 128.708 0.0139977 132.497 0.0139977C136.286 0.0139977 139.243 1.239 141.366 3.689C143.489 6.139 144.551 9.58533 144.551 14.028V21.672C144.551 26.2453 143.489 29.7243 141.366 32.109C139.243 34.4937 136.286 35.686 132.497 35.686C128.708 35.686 125.751 34.4937 123.628 32.109C121.505 29.7243 120.443 26.2453 120.443 21.672V14.028ZM132.497 31.864C135.143 31.864 137.119 30.9657 138.426 29.169C139.765 27.3397 140.435 24.7427 140.435 21.378V14.322C140.435 11.186 139.765 8.65433 138.426 6.727C137.119 4.79967 135.143 3.836 132.497 3.836C129.851 3.836 127.858 4.79967 126.519 6.727C125.212 8.65433 124.559 11.186 124.559 14.322V21.378C124.559 24.7427 125.212 27.3397 126.519 29.169C127.858 30.9657 129.851 31.864 132.497 31.864ZM169.213 33.236H169.801V0.699998H173.917V35H165.685L155.787 2.464H155.199V35H151.083V0.699998H159.315L169.213 33.236Z" fill="white"></path></svg>