<?xml version="1.0" encoding="UTF-8"?>
<!DOCTYPE svg PUBLIC "-//W3C//DTD SVG 1.1//EN" "http://www.w3.org/Graphics/SVG/1.1/DTD/svg11.dtd">
<!-- Creator: CorelDRAW -->
<svg xmlns="http://www.w3.org/2000/svg" xml:space="preserve" width="2048px" height="2048px" style="shape-rendering:geometricPrecision; text-rendering:geometricPrecision; image-rendering:optimizeQuality; fill-rule:evenodd; clip-rule:evenodd"
viewBox="0 0 2048 2048"
 xmlns:xlink="http://www.w3.org/1999/xlink">
 <defs>
  <style type="text/css">
   <![CDATA[
    .fil4 {fill:none}
    .fil3 {fill:#2F2F2F;fill-rule:nonzero}
    .fil1 {fill:#444444;fill-rule:nonzero}
    .fil2 {fill:#9D9D9D;fill-rule:nonzero}
    .fil0 {fill:#A1A1A1;fill-rule:nonzero}
   ]]>
  </style>
 </defs>
 <g id="Layer_x0020_1">
  <metadata id="CorelCorpID_0Corel-Layer"/>
  <path class="fil0" d="M561.286 771.987c0,-16.7315 -14.328,-30.2977 -32.0008,-30.2977 -17.6728,0 -32.0008,13.5662 -32.0008,30.2977l0 342.614c0,16.7315 14.328,30.2977 32.0008,30.2977 17.6728,0 32.0008,-13.5662 32.0008,-30.2977l0 -342.614z"/>
  <path class="fil0" d="M1550.72 771.987c0,-16.7315 -14.328,-30.2977 -32.0008,-30.2977 -17.6728,0 -32.0008,13.5662 -32.0008,30.2977l0 342.614c0,16.7315 14.328,30.2977 32.0008,30.2977 17.6728,0 32.0008,-13.5662 32.0008,-30.2977l0 -342.614z"/>
  <path class="fil1" d="M1050.56 1382c-8.83583,0 -16.0004,7.16457 -16.0004,16.0004 0,8.83583 7.16457,16.0004 16.0004,16.0004l153.261 0 18.1217 18.7902 24.4441 35.0646c8.75552,9.10394 23.2382,9.38505 32.3422,0.628347 9.10276,-8.7567 9.38387,-23.687 0.627166,-32.791l-33.2965 -24.1831 -23.2087 -24.0638c-2.93504,-3.51969 -7.35119,-5.44607 -12.2917,-5.44607l-159.999 0z"/>
  <path class="fil0" d="M1075.78 808.933c0,-17.6728 -23.1851,-32.0008 -51.7819,-32.0008 -28.5969,0 -51.7819,14.328 -51.7819,32.0008l0 285.617c0,17.6728 23.1851,32.0008 51.7819,32.0008 28.5969,0 51.7819,-14.328 51.7819,-32.0008l0 -285.617z"/>
  <path class="fil2" d="M848.627 255.999l350.453 0c80.7343,0 110.83,54.9225 141.743,111.341l3.07441 5.60315c25.5496,46.4634 36.3048,98.2418 35.3044,154.239 -0.962599,53.928 -12.9295,111.62 -33.0544,172.097 -11.2913,33.9343 -29.0067,66.1985 -55.7339,89.1497 -23.7732,20.4154 -53.7615,33.1701 -91.3335,33.1701l-350.453 0c-41.8961,0 -72.6686,-15.9839 -96.7265,-40.4339 -21.802,-22.1575 -36.7051,-50.3339 -49.3406,-79.0111 -21.0685,-47.8122 -33.0579,-98.6682 -33.789,-153.281 -0.722835,-53.9528 9.65788,-111.102 33.2894,-172.055 11.5595,-29.8217 26.8583,-58.7185 49.1741,-80.9162 24.3591,-24.228 55.7646,-39.9036 97.3926,-39.9036z"/>
  <path class="fil0" d="M1056 1320.25c0,-17.6728 -14.328,-32.0008 -32.0008,-32.0008 -17.6728,0 -32.0008,14.328 -32.0008,32.0008l0 285.617c0,17.6728 14.328,32.0008 32.0008,32.0008 17.6728,0 32.0008,-14.328 32.0008,-32.0008l0 -285.617z"/>
  <path class="fil3" d="M645.717 1223.29l0 -83.5808c0,-13.9051 12.737,-25.1776 28.4481,-25.1776 3.19843,0 6.2752,0.468898 9.14528,1.32992 11.9398,3.00118 24.391,5.67756 37.1315,8.08583 13.8036,2.60788 27.9721,4.94174 42.2386,7.05473 99.3934,14.7284 191.802,21.2032 278.352,20.7591 86.315,-0.440552 167.211,-7.77284 243.731,-20.661 14.6315,-2.46378 28.9217,-5.0126 42.3355,-7.67953 13.728,-2.72835 26.8181,-5.60906 38.8441,-8.6882l7.88977 24.0945 -7.90867 -24.1843c15.0921,-3.86457 30.8693,3.82914 35.2359,17.1851 0.822048,2.51457 1.17992,5.0504 1.12205,7.53662l0 83.9257c0,32.7272 -22.9193,55.4032 -57.9756,72.1111 -28.5508,13.6063 -65.7284,23.0965 -103.739,31.2083 -63.5375,13.5602 -130.877,21.2764 -202.929,21.7429 -71.7898,0.466536 -147.984,-6.25394 -229.429,-21.5469 -38.8677,-7.29922 -76.4552,-16.9205 -105.129,-30.8847 -34.8284,-16.9606 -57.3638,-40.1445 -57.3638,-72.6308z"/>
  <path class="fil2" d="M450.2 762.945c0,21.7937 14.328,39.463 32.0008,39.463l94.1682 0c17.6728,0 32.0008,-17.6693 32.0008,-39.463 0,-59.9245 -158.17,-59.9245 -158.17,0z"/>
  <path class="fil2" d="M1439.63 762.945c0,21.7937 14.328,39.463 32.0008,39.463l94.1682 0c17.6728,0 32.0008,-17.6693 32.0008,-39.463 0,-59.9245 -158.17,-59.9245 -158.17,0z"/>
  <path class="fil0" d="M1518.72 1147.24c17.6728,0 32.0008,-14.328 32.0008,-32.0008 0,-17.6728 -14.328,-32.0008 -32.0008,-32.0008l-94.1682 0c-17.6728,0 -32.0008,14.328 -32.0008,32.0008 0,17.6728 14.328,32.0008 32.0008,32.0008l94.1682 0z"/>
  <path class="fil0" d="M623.454 1147.24c17.6728,0 32.0008,-14.328 32.0008,-32.0008 0,-17.6728 -14.328,-32.0008 -32.0008,-32.0008l-94.1682 0c-17.6728,0 -32.0008,14.328 -32.0008,32.0008 0,17.6728 14.328,32.0008 32.0008,32.0008l94.1682 0z"/>
  <path class="fil3" d="M660.939 1737.37c-12.4949,12.4949 -12.4949,32.7555 0,45.2504 12.4949,12.4949 32.7555,12.4949 45.2504,0l64.7174 -64.7174c239.849,-45.0721 259.244,-45.45 499.337,-6.84567l71.5654 71.563c12.4949,12.4949 32.7555,12.4949 45.2504,0 12.4949,-12.4949 12.4949,-32.7555 0,-45.2504l-78.4028 -78.4005c-4.59804,-4.73977 -10.6973,-8.10237 -17.7118,-9.26576l-5.23583 31.5685 5.12481 -31.5 -259.212 -42.9957c-4.30276,-1.05709 -8.89489,-1.23543 -13.5319,-0.36378l0.0141732 0.0779528 -266.609 50.1036c-6.92245,0.798426 -13.6335,3.84922 -18.9425,9.15827l0.00236221 0.00236221 -71.6162 71.615z"/>
  <path class="fil2" d="M598.485 1138.9l0 -92.7544c0,-15.4299 14.328,-27.9402 32.0008,-27.9402 3.59764,0 7.05827,0.519685 10.2862,1.4752 13.4315,3.33071 27.437,6.30119 41.7685,8.97284 15.5268,2.89488 31.4646,5.48386 47.5122,7.82953 111.803,16.3453 215.75,23.5299 313.106,23.0374 97.0926,-0.488977 188.09,-8.6256 274.164,-22.9288 16.4587,-2.73425 32.5335,-5.56182 47.6209,-8.52166 15.4429,-3.02835 30.1666,-6.22441 43.6949,-9.64253l8.87481 26.739 -8.89607 -26.8382c16.976,-4.28977 34.7233,4.24961 39.6355,19.0713 0.924804,2.79095 1.32756,5.60552 1.26142,8.36339l0 93.1371c0,36.3189 -25.7811,61.4823 -65.2146,80.0245 -32.1154,15.1004 -73.9347,25.6323 -116.691,34.6335 -71.4709,15.0484 -147.219,23.6114 -228.266,24.1299 -80.7532,0.517323 -166.461,-6.94016 -258.076,-23.9126 -43.7209,-8.09883 -86.002,-18.7772 -118.256,-34.2733 -39.1772,-18.8221 -64.526,-44.5512 -64.526,-80.602z"/>
  <path class="fil3" d="M1083.59 1451.22c0,-10.3854 -26.6811,-18.8055 -59.5902,-18.8055 -32.9091,0 -59.5902,8.42009 -59.5902,18.8055l0 167.845c0,10.3854 26.6811,18.8055 59.5902,18.8055 32.9091,0 59.5902,-8.42009 59.5902,-18.8055l0 -167.845z"/>
 </g>
 <rect class="fil4" width="2048" height="2048"/>
</svg>
