<?xml version="1.0" encoding="UTF-8"?>
<!DOCTYPE svg PUBLIC "-//W3C//DTD SVG 1.1//EN" "http://www.w3.org/Graphics/SVG/1.1/DTD/svg11.dtd">
<!-- Creator: CorelDRAW -->
<svg xmlns="http://www.w3.org/2000/svg" xml:space="preserve" width="2048px" height="2048px" style="shape-rendering:geometricPrecision; text-rendering:geometricPrecision; image-rendering:optimizeQuality; fill-rule:evenodd; clip-rule:evenodd"
viewBox="0 0 2048 2048"
 xmlns:xlink="http://www.w3.org/1999/xlink">
 <defs>
  <style type="text/css">
   <![CDATA[
    .fil13 {fill:none}
    .fil12 {fill:#2F2F2F}
    .fil11 {fill:#444444}
    .fil7 {fill:#555555}
    .fil2 {fill:#565656}
    .fil1 {fill:#6A6A6A}
    .fil8 {fill:#9D9D9D}
    .fil9 {fill:#A1A1A1}
    .fil10 {fill:#D8D8D8}
    .fil0 {fill:#555555;fill-rule:nonzero}
    .fil4 {fill:#7A7A7A;fill-rule:nonzero}
    .fil3 {fill:#898989;fill-rule:nonzero}
    .fil5 {fill:#939393;fill-rule:nonzero}
    .fil6 {fill:#AEAEAF;fill-rule:nonzero}
   ]]>
  </style>
 </defs>
 <g id="Layer_x0020_1">
  <metadata id="CorelCorpID_0Corel-Layer"/>
  <g id="_289956064">
   <path id="_289958704" class="fil0" d="M657.211 775.648c0,20.002 16.2165,36.2185 36.2185,36.2185 20.002,0 36.2185,-16.2165 36.2185,-36.2185l0 -41.7898c0,-5.69646 2.35748,-10.9028 6.15237,-14.6976 3.79488,-3.7937 9.00237,-6.15237 14.6976,-6.15237 112.828,33.926 225.655,22.7504 338.484,0 -11.4437,-23.4083 -21.1075,-47.6138 -28.8614,-72.4359 -103.206,30.2941 -206.417,35.7319 -309.623,0 -25.689,0 -49.0205,10.4858 -65.9115,27.3744 -16.8898,16.8898 -27.3756,40.2213 -27.3756,65.9115l0 41.7898z"/>
   <path id="_289958680" class="fil1" d="M683.884 783.814l16.8024 0c18.2374,0 33.1571,14.9197 33.1571,33.1571l0 33.1583 -83.1166 0 0 -33.1583c0,-18.2374 14.9197,-33.1571 33.1571,-33.1571z"/>
   <rect id="_289958296" class="fil2" x="598.115" y="840.404" width="186.568" height="54.822"/>
   <path id="_289958656" class="fil3" d="M1601.25 1142.43l0 542.431c0,21.887 -8.92678,41.7579 -23.3103,56.1414 -14.3835,14.3835 -34.2555,23.3103 -56.1414,23.3103l-1186.34 0c-21.887,0 -41.7579,-8.92678 -56.1414,-23.3103 -14.3835,-14.3835 -23.3114,-34.2544 -23.3114,-56.1414l0 -542.446 673.462 87.5434 671.786 -87.528z"/>
   <path id="_289957672" class="fil0" d="M335.451 859.659l885.532 0 380.262 19.4528 0 301.954 -672.622 87.7335 -672.625 -87.7335 0 -241.955c0,-21.8858 8.92796,-41.7579 23.3114,-56.1414 14.3835,-14.3835 34.2544,-23.3103 56.1414,-23.3103z"/>
   <g>
    <path id="_289957552" class="fil4" d="M1226.9 546.794c-22.5414,-55.6205 -58.0902,-143.426 -44.0929,-187.565 -10.7362,-1.00748 -29.7709,12.5906 -36.5126,19.9925 -84.5894,81.6579 -188.364,233.098 -185.064,355.128 2.22402,82.128 35.713,165.187 92.3493,238.435 58.7079,75.9272 142.645,141.68 242.379,184.808 3.52323,1.52008 14.0114,2.77559 17.6315,3.02244 -16.2732,-15.5162 -38.4874,-32.5914 -53.2241,-49.3146 -77.4969,-87.9473 -130.944,-210.264 -121.305,-328.716 6.24213,-76.676 39.7666,-153.317 77.9965,-219.215 3.22087,-5.55119 6.50434,-11.0764 9.84213,-16.5756z"/>
    <path id="_289957480" class="fil4" d="M1506.98 1120.68c60.9272,2.65512 180.625,-89.8005 217.875,-134.948 44.3847,-53.7969 72.1335,-119.056 66.4004,-189.51 -6.18308,-75.9721 -158.894,-343.107 -238.824,-335.755 1.01339,9.64016 11.0268,124.064 -17.5559,134.91 88.8839,183.973 150.82,303.272 -27.8953,525.303z"/>
    <path id="_289957936" class="fil5" d="M1123.62 785.261c13.1315,-161.346 162.807,-343.033 241.663,-428.426 17.8453,-19.324 66.6036,-75.7867 96.3154,-73.0548 3.78071,0.347244 8.05394,3.12166 6.24567,6.15237 -19.8307,33.2469 -37.4906,102.897 55.0973,277.071 21.7689,44.0646 48.8032,98.7839 80.9127,173.706 26.0469,60.7772 30.7264,117.91 22.2851,169.989 -10.4516,64.4764 -40.937,120.328 -75.6697,165.401 -9.17717,11.9102 -17.6138,22.4988 -25.3004,31.6772 -26.7945,31.9843 -131.697,92.2324 -164.158,81.9851l0.00472441 -0.0165354c-46.6465,-14.7248 -92.5312,-64.2886 -124.221,-100.253 -39.5528,-44.8855 -69.0567,-95.6552 -88.1552,-146.587 -20.4721,-54.5941 -28.9418,-109.442 -25.0193,-157.644z"/>
    <path id="_289957792" class="fil6" d="M1273.86 946.489c5.32441,-65.4213 66.0154,-139.091 97.9891,-173.717 7.23544,-7.83544 27.0059,-30.7299 39.0532,-29.6221 1.53307,0.141732 3.26575,1.26614 2.53229,2.49449 -8.04095,13.4811 -15.2008,41.7225 22.3417,112.347 8.82638,17.8665 19.7882,40.0536 32.8075,70.4327 10.5614,24.6437 12.4583,47.8099 9.03544,68.9268 -4.2378,26.1437 -16.598,48.7902 -30.6815,67.0654 -3.72166,4.82953 -7.14213,9.12284 -10.2591,12.8445 -3.06378,3.65788 -6.07678,7.0689 -9.06969,10.2461 -0.822048,1.00866 -1.82362,1.9004 -2.99173,2.62323 -16.4752,10.1965 -52.5815,20.9788 -54.5008,20.374l0.00236221 -0.00708662c-18.9142,-5.97048 -37.5189,-26.0669 -50.3681,-40.65 -16.0382,-18.2008 -28.0016,-38.7863 -35.7449,-59.4378 -8.30079,-22.1362 -11.7354,-44.3752 -10.1457,-63.9201z"/>
   </g>
   <path id="_289957744" class="fil7" d="M928.62 1508.68l0.00236221 0c28.9418,0 52.6205,-23.6788 52.6205,-52.6205l0 -153.188 -105.243 0 0 153.188c0,28.9418 23.6788,52.6205 52.6205,52.6205z"/>
   <path id="_289956904" class="fil8" d="M928.62 1135.73l0.00236221 0c35.1768,0 63.9567,28.7799 63.9567,63.9567l0 186.19 -127.917 0 0 -186.19c0,-35.1768 28.7811,-63.9567 63.9579,-63.9567z"/>
   <rect id="_289957312" class="fil9" x="848.306" y="1349.04" width="160.631" height="145.87" rx="17.5488" ry="17.5488"/>
   <rect id="_289956808" class="fil10" x="864.031" y="1363.32" width="129.182" height="117.311" rx="14.113" ry="14.113"/>
   <path id="_289956616" class="fil11" d="M935.283 1448.03c7.11024,-2.69173 12.1713,-9.56339 12.1713,-17.6173 0,-10.3996 -8.4319,-18.8315 -18.8315,-18.8315 -10.4008,0 -18.8315,8.4319 -18.8315,18.8315 0,8.05394 5.05748,14.9268 12.1677,17.6173l0 17.7354 13.324 0 0 -17.7354z"/>
   <rect id="_289957048" class="fil7" x="820.957" y="1282.6" width="215.329" height="56.4968"/>
   <g>
    <circle id="_289957000" class="fil12" cx="928.622" cy="1181.56" r="13.2018"/>
    <g>
     <circle id="_289956640" class="fil12" cx="949.932" cy="1215.37" r="13.2018"/>
     <circle id="_289956520" class="fil12" cx="907.309" cy="1215.37" r="13.2018"/>
    </g>
   </g>
  </g>
 </g>
 <rect class="fil13" width="2048" height="2048"/>
</svg>
