<?xml version="1.0" encoding="UTF-8"?>
<!DOCTYPE svg PUBLIC "-//W3C//DTD SVG 1.1//EN" "http://www.w3.org/Graphics/SVG/1.1/DTD/svg11.dtd">
<!-- Creator: CorelDRAW -->
<svg xmlns="http://www.w3.org/2000/svg" xml:space="preserve" width="2048px" height="2048px" style="shape-rendering:geometricPrecision; text-rendering:geometricPrecision; image-rendering:optimizeQuality; fill-rule:evenodd; clip-rule:evenodd"
viewBox="0 0 2048 2048"
 xmlns:xlink="http://www.w3.org/1999/xlink">
 <defs>
  <style type="text/css">
   <![CDATA[
    .fil19 {fill:none}
    .fil12 {fill:#2D2D2D}
    .fil15 {fill:#2F2F2F}
    .fil11 {fill:#323232}
    .fil18 {fill:#474747}
    .fil4 {fill:#727272}
    .fil7 {fill:#9D9D9D}
    .fil9 {fill:#B2B2B2}
    .fil14 {fill:#B3B4B4}
    .fil13 {fill:#B9B9B9}
    .fil17 {fill:#BEBEBE}
    .fil10 {fill:#C0C0C1}
    .fil1 {fill:#C3C3C3}
    .fil5 {fill:#D4D4D4}
    .fil2 {fill:#2F2F2F;fill-rule:nonzero}
    .fil16 {fill:#545454;fill-rule:nonzero}
    .fil0 {fill:#5E5E5E;fill-rule:nonzero}
    .fil8 {fill:#767676;fill-rule:nonzero}
    .fil3 {fill:#BFBFBF;fill-rule:nonzero}
    .fil6 {fill:#E5E5E6;fill-rule:nonzero}
   ]]>
  </style>
 </defs>
 <g id="Layer_x0020_1">
  <metadata id="CorelCorpID_0Corel-Layer"/>
  <path class="fil0" d="M1538.58 808.88c0.276378,-17.5488 -13.8673,-32.0032 -31.5898,-32.2772 -17.7236,-0.275197 -32.3185,13.7291 -32.5949,31.2792l-2.25355 128.154 -233.779 -241.571c-12.3036,-12.6638 -32.6433,-13.0547 -45.4323,-0.872835 -12.7878,12.1819 -13.1823,32.3233 -0.878741,44.987l232.201 239.954 -126.145 -2.1815c-17.7236,-0.274016 -32.3185,13.7303 -32.5961,31.2792 -0.276378,17.55 13.8673,32.0032 31.591,32.2772l202.466 3.50197c0.916536,0.0933072 1.8437,0.152362 2.78268,0.167717 17.7898,0.307087 32.465,-13.7256 32.7744,-31.3406l-32.2134 -0.557481 32.0929 0.499607 3.5752 -203.3z"/>
  <path class="fil0" d="M1061.6 1766.51c12.2752,12.5445 32.4969,12.665 45.163,0.264567 12.6662,-12.4004 12.985,-32.6244 0.709843,-45.1701l-89.4768 -91.7753 288.359 1.55906c17.654,0.168898 32.2441,-14.0091 32.5866,-31.6677 0.34252,-17.6575 -13.6913,-32.1107 -31.3465,-32.2784l-286.1 -1.54252 90.3107 -88.0997c12.665,-12.4004 12.9839,-32.6256 0.708662,-45.1701 -12.2752,-12.5457 -32.4969,-12.665 -45.163,-0.265748l-144.95 141.402c-0.712205,0.585827 -1.40551,1.20354 -2.07756,1.85906 -12.7358,12.424 -13.0902,32.726 -0.79252,45.3402l0.126378 -0.0448819 141.941 145.59z"/>
  <path class="fil0" d="M843.407 1102.97c0.276378,17.5488 -13.8673,32.0032 -31.5898,32.2772 -17.7236,0.275197 -32.3185,-13.7291 -32.5949,-31.2792l-2.25355 -128.154 -230.654 234.28c-12.3024,12.6638 -32.6433,13.0547 -45.4323,0.872835 -12.7878,-12.1819 -13.1811,-32.3233 -0.878741,-44.987l229.076 -232.663 -126.145 2.1815c-17.7236,0.274016 -32.3185,-13.7303 -32.5961,-31.2792 -0.276378,-17.55 13.8673,-32.0032 31.591,-32.2772l202.466 -3.50197c0.916536,-0.0933072 1.8437,-0.152362 2.78268,-0.167717 17.7898,-0.307087 32.465,13.7256 32.7744,31.3406l-0.120473 0.0578741 3.5752 203.3z"/>
  <circle class="fil1" cx="519.163" cy="1475.96" r="318.75"/>
  <circle class="fil1" cx="1550.41" cy="1475.96" r="318.75"/>
  <circle class="fil1" cx="1024" cy="496.916" r="318.75"/>
  <path class="fil2" d="M698.252 1602.52c0.312992,-14.0362 -0.809056,-150.195 -1.62402,-190.416 -0.45,-22.1138 -0.805512,-39.6201 -0.783071,-42.5752 0.519685,-67.1162 -20.5146,-110.391 -53.7532,-137.397 -32.4555,-26.3681 -75.7867,-36.2481 -121.578,-37.3311 -0.666142,-0.0732284 -1.3441,-0.102756 -2.0315,-0.090945l0.0011811 0.0590552c-46.3111,0.910631 -90.1985,10.7221 -122.989,37.363 -33.2386,27.0059 -54.2729,70.2804 -53.7544,137.397 0.0448819,5.87008 1.52008,136.016 2.89725,177.191 0.692127,20.6504 1.36536,39.4193 1.83543,50.0292 9.85985,-6.88347 20.3114,-12.9343 31.2957,-18.0177l-0.226772 -0.614174 14.7402 -5.44489c12.9449,-4.77992 27.3673,-0.350788 35.8642,10.3795 2.06811,2.6126 4.45512,5.00788 6.81851,7.35237 2.69882,2.6752 5.51457,5.23229 8.45079,7.64528 10.8602,8.92796 23.3918,16.0358 36.626,20.791 12.3744,4.44567 25.5945,6.91064 38.7674,6.59528 18.4996,-0.444095 36.8835,-4.01221 53.7272,-11.8217 14.3858,-6.66969 26.9197,-16.161 37.1362,-28.1977l1.85906 -2.31378c8.8819,-11.0563 23.9977,-14.5984 36.9957,-9.17599 17.8394,7.44213 34.5189,17.0752 49.7256,28.5933z"/>
  <path class="fil3" d="M770.447 1671.59c-0.976772,-3.63425 -1.99134,-7.17993 -3.0378,-10.6075 -15.9142,-52.1244 -179.73,-141.767 -245.286,-142.373 -59.393,-0.551575 -233.727,89.8666 -248.393,134.206 -2.03622,6.15709 -3.99922,12.7949 -5.85237,19.741 58.3524,74.3693 149.052,122.152 250.914,122.152 102.299,0 193.331,-48.2008 251.655,-123.119z"/>
  <path class="fil4" d="M430.105 1545.23c-69.2445,30.0957 -146.804,78.6497 -156.375,107.583 -2.03622,6.15709 -3.99922,12.7949 -5.85237,19.741 56.2512,71.6906 142.565,118.652 239.956,121.944l-77.7296 -249.268z"/>
  <path class="fil4" d="M607.769 1544.3l-78.0201 250.199c97.8261,-3.30591 184.466,-50.6859 240.699,-122.913 -0.976772,-3.63425 -1.99134,-7.17875 -3.0378,-10.6063 -10.7539,-35.2181 -89.0245,-87.5635 -158.888,-118l-0.753544 1.32047z"/>
  <path class="fil5" d="M459.277 1506.44l119.726 0 0 24.8433c9.51142,3.36614 19.428,7.30512 29.5193,11.7024l-0.753544 1.32047 -0.496063 1.59213c-11.6599,19.1138 -46.8638,33.0024 -88.4812,33.0024 -41.6162,0 -76.8201,-13.8886 -88.48,-33.0024l-0.206693 -0.661418c9.97205,-4.33347 19.7728,-8.28544 29.1721,-11.739l0 -27.0579z"/>
  <path class="fil6" d="M571.002 1318.11c17.8866,4.4126 50.6422,20.713 54.9839,39.7642l-0.0129921 0.00236221 0.0625985 0.382677 -0.0165354 0.00236221 0.0011811 0.00708662 0.0011811 0.00472441 0.0011811 0.00590552 0.0011811 0.00472441 0.0011811 0.00590552 0.0011811 0.00590552 0.0011811 0.00590552 0.0011811 0.00354331c0.0165354,0.0897638 0.0366142,0.175984 0.056693,0.264567l0.0011811 0.00472441 0.0011811 0.00472441 0.0011811 0.00590552 0.0011811 0.00590552 0.0011811 0.00590552 0.00236221 0.00472441 0 0 0 0.00590552 0.00236221 0.00590552c2.72362,16.4917 2.50276,82.1658 -0.992127,98.5312 -4.48111,20.9929 -14.3516,40.702 -30.3024,56.093 -17.4827,16.8673 -40.4162,25.9748 -64.8048,29.0421 -47.1863,5.93268 -87.3249,-20.3575 -107.234,-59.9174 -6.33426,-12.5847 -10.6217,-75.0426 -12.437,-89.706 20.3575,-21.0744 35.8004,-28.3831 49.8449,-35.0292 15.1335,-7.16221 28.8709,-13.6665 44.517,-31.7173 -0.836221,11.4 2.21339,24.0473 -2.86181,35.8394 5.47678,-0.61063 11.1449,-2.28189 16.4941,-4.43622 45.7122,-18.4063 53.1225,-58.9158 70.0548,-100.403 -2.36339,18.3024 -10.9973,45.4831 -13.5343,51.8587 -1.2437,3.12402 -2.51693,6.24331 -3.83859,9.34135z"/>
  <path class="fil7" d="M518.791 1578.9c-41.6162,0 -76.8201,-13.8886 -88.48,-33.0024l7.22481 23.1685c15.0095,14.5736 46.3583,24.2292 81.6024,24.2292 34.6111,0 65.2973,-9.29292 80.6186,-23.2984l7.51536 -24.0992c-0.302362,0.494882 -0.620079,0.986221 -0.95315,1.4752 -5.33741,8.61615 -16.0335,16.0252 -30.124,21.4429 -15.7784,6.31418 -35.7213,10.0843 -57.404,10.0843z"/>
  <path class="fil8" d="M1319.02 1695.18c1.75866,-7.6193 3.70394,-14.9693 5.79331,-21.8103 14.4402,-47.2973 163.087,-128.639 222.571,-129.19 53.8926,-0.498426 212.085,81.5457 225.39,121.779 2.99646,9.06261 5.82284,19.2638 8.32323,29.967 -58.05,60.8634 -139.942,98.7875 -230.691,98.7875 -91.1162,0 -173.295,-38.2382 -231.386,-99.5328z"/>
  <polygon class="fil9" points="1596.14,1509.91 1504.67,1509.91 1504.67,1575.19 1550.44,1597.55 1596.14,1575.19 "/>
  <path class="fil10" d="M1413.03 1372.27c0,93.8729 73.3064,176.73 144.186,173.629 66.3473,-2.90197 130.573,-85.7611 130.573,-173.629 0,-155.935 -69.0827,-165.804 -132.807,-166.996 -70.2591,-1.31102 -141.952,3.98386 -141.952,166.996z"/>
  <path class="fil11" d="M1485.64 1211.1c-51.626,20.3114 -87.3591,60.7193 -87.3591,86.6717 0,35.8299 9.35198,89.0375 25.389,104.042 4.09252,-117.584 68.1497,-104.911 130.967,-103.893 56.8867,0.924804 118.394,-8.21575 122.503,103.905 16.0441,-15.0036 25.4032,-68.2205 25.4032,-104.054 0,-22.6524 -27.2232,-56.3091 -68.4674,-78.0131 6.40512,-1.94764 12.9709,-7.01693 12.9709,-10.9004 -25.65,2.87953 -38.8288,-4.12205 -58.0229,-5.91733 4.4563,-4.20591 5.46024,-10.076 7.05119,-17.0079 -2.4626,2.15551 -17.9988,11.9858 -20.2453,11.3327 3.54803,-10.5496 3.62244,-5.77678 6.69331,-20.1024 -18.1772,22.9996 -68.8678,22.9193 -96.8824,33.9366z"/>
  <path class="fil10" d="M1692.18 1368.56c-7.3689,0 -18.6236,14.824 -18.6236,34.0914 0,19.265 5.97166,34.8827 13.3417,34.8827 7.37245,0 10.5638,-15.6177 10.5638,-34.8827 0,-19.2673 2.08937,-34.0914 -5.28189,-34.0914z"/>
  <path class="fil10" d="M1408.64 1368.56c7.37127,0 18.6248,14.824 18.6248,34.0914 0,19.265 -5.97284,34.8827 -13.3429,34.8827 -7.3689,0 -10.5626,-15.6177 -10.5626,-34.8827 0,-19.2673 -2.09055,-34.0914 5.28071,-34.0914z"/>
  <path class="fil12" d="M1598.78 1369.81c-6.67796,0 -12.0921,5.413 -12.0921,12.0921 0,6.67678 5.41418,12.091 12.0921,12.091 6.6756,0 12.0898,-5.41418 12.0898,-12.091 0,-6.67914 -5.41418,-12.0921 -12.0898,-12.0921z"/>
  <path class="fil12" d="M1502.04 1369.81c-6.67678,0 -12.091,5.413 -12.091,12.0921 0,6.67678 5.41418,12.091 12.091,12.091 6.67796,0 12.0921,-5.41418 12.0921,-12.091 0,-6.67914 -5.41418,-12.0921 -12.0921,-12.0921z"/>
  <path class="fil13" d="M1550.71 1593.28l-26.0492 14.6811c-5.25237,15.978 10.6595,25.1433 25.6358,25.324 1.57087,0.0200788 3.15591,-0.0531496 4.70788,-0.207874 13.3854,-1.36063 25.7516,-10.3925 21.2398,-25.1315l-25.5343 -14.6658z"/>
  <polygon class="fil13" points="1578.58,1754.48 1550.41,1784.13 1522.25,1754.95 1543.12,1613.98 1550.41,1604.36 1557.49,1612.7 "/>
  <polygon class="fil14" points="1611.82,1538.48 1550.41,1593.55 1594.11,1622.57 1623.62,1559.73 "/>
  <polygon class="fil14" points="1489,1538.48 1550.41,1593.55 1506.7,1622.57 1477.2,1559.73 "/>
  <path class="fil15" d="M1630.88 1568.33c62.8347,27.3095 133.21,71.3646 141.894,97.6205 2.99646,9.06261 5.82284,19.2638 8.32323,29.967 -55.9229,58.6323 -133.974,95.9599 -220.752,98.6186l70.5343 -226.206z"/>
  <path class="fil15" d="M1469.67 1567.49l70.8012 227.051c-87.143,-2.66811 -165.478,-40.3099 -221.451,-99.3639 1.75866,-7.6193 3.70394,-14.9693 5.79331,-21.8103 9.75946,-31.9583 80.7792,-79.4552 144.174,-107.075l0.682678 1.19882z"/>
  <path class="fil16" d="M1025.22 815.651l-2.43071 0c-90.3627,-0.337796 -171.862,-38.2689 -229.666,-98.9741 1.77284,-7.71142 3.73937,-15.1488 5.85119,-22.0666 14.4059,-47.1792 162.679,-128.316 222.013,-128.865 53.7591,-0.499607 211.554,81.3414 224.828,121.473 3.01654,9.12166 5.85709,19.402 8.3693,30.1831 -57.7607,60.28 -138.964,97.9135 -228.965,98.2501z"/>
  <polygon class="fil9" points="1069.62,531.564 978.378,531.564 978.378,596.684 1024.04,618.983 1069.62,596.684 "/>
  <path class="fil10" d="M886.964 394.263c0,93.639 73.1245,176.289 143.826,173.195 66.1819,-2.8937 130.246,-85.5449 130.246,-173.195 0,-155.543 -68.9103,-165.389 -132.474,-166.577 -70.0855,-1.30748 -141.599,3.97205 -141.599,166.577z"/>
  <path class="fil11" d="M872.251 319.959c0,35.7414 9.32835,88.8166 25.324,103.781 43.6784,-68.8796 -23.2382,-117.584 23.1248,-139.071 21.1358,-9.79371 58.9949,-15.9118 108.979,-13.6063 183.834,8.47678 68.3067,59.3563 120.732,152.691 16.0051,-14.9669 25.3382,-68.0493 25.3382,-103.794 0,-96.0639 -123.246,-114.789 -200.021,-99.5894 -61.6855,12.2138 -103.478,57.9733 -103.478,99.5894z"/>
  <path class="fil10" d="M1165.42 390.571c-7.35119,0 -18.5776,14.7886 -18.5776,34.0051 0,19.2177 5.95867,34.7965 13.3099,34.7965 7.35001,0 10.5366,-15.5788 10.5366,-34.7965 0,-19.2166 2.08229,-34.0051 -5.2689,-34.0051z"/>
  <path class="fil10" d="M882.583 390.571c7.35119,0 18.5776,14.7886 18.5776,34.0051 0,19.2177 -5.95867,34.7965 -13.3099,34.7965 -7.35001,0 -10.5366,-15.5788 -10.5366,-34.7965 0,-19.2166 -2.08229,-34.0051 5.2689,-34.0051z"/>
  <path class="fil17" d="M1024.3 614.722l-25.9855 14.6433c-5.23819,15.9378 10.6347,25.0784 25.5732,25.2614 1.56614,0.0177165 3.14646,-0.0531496 4.69725,-0.209055 13.3512,-1.35709 25.6866,-10.3665 21.1843,-25.0677l-25.4693 -14.628z"/>
  <path class="fil17" d="M1039.1 815.301l-24.6992 0.209055c-6.15945,-0.18189 -12.2717,-0.550394 -18.339,-1.07717l20.6752 -179.054 7.27323 -9.60119 7.05709 8.31497 20.9469 180.334c-4.28268,0.373229 -8.58426,0.672048 -12.9142,0.874016z"/>
  <polygon class="fil18" points="1085.25,560.057 1024,614.993 1067.6,643.942 1097.03,581.255 "/>
  <polygon class="fil18" points="962.743,560.057 1024,614.993 980.402,643.942 950.971,581.255 "/>
  <path class="fil2" d="M1147.35 609.421c0,-7.63583 13.8213,-1.75748 13.8213,8.51457l-1.00512 167.245c-4.11024,1.94528 -8.26182,3.81733 -12.4654,5.59016l-0.350788 -181.35z"/>
  <path class="fil2" d="M1166.4 782.143l-1.0689 -97.2887c0,-5.17441 -5.04685,-9.36969 -11.2736,-9.36969 -6.2256,0 -11.2736,4.19528 -11.2736,9.36969l-0.381496 108.08c8.17323,-3.27284 16.1752,-6.87875 23.9977,-10.7917z"/>
  <path class="fil2" d="M904.801 609.421c0,-7.63583 -13.8225,-1.75748 -13.8225,8.51457l1.01811 169.188c4.10315,1.86851 8.25827,3.6437 12.4512,5.34095l0.35315 -183.044z"/>
  <path class="fil2" d="M885.725 784.192l1.09252 -99.3379c0,-5.17441 5.04685,-9.36969 11.2736,-9.36969 6.22678,0 11.2736,4.19528 11.2736,9.36969l0.387402 109.702c-8.17323,-3.13937 -16.1941,-6.58701 -24.0272,-10.3642z"/>
  <path class="fil2" d="M993.704 431.3c-4.50827,4.67363 -11.0469,8.2193 -19.8886,9.0756 -0.628347,0.0602363 -1.95118,0.115748 -3.44646,0.16063 -2.60551,0.080315 -5.35748,0.124016 -6.59174,0.133465 -11.4083,0.0885827 -18.3827,-3.0189 -22.3772,-7.93347 -7.87678,-9.69568 -7.90985,-32.2122 0,-41.9469 3.99331,-4.91575 10.9689,-8.02087 22.3772,-7.93347 1.23425,0.00826772 3.98859,0.0543308 6.59292,0.132284 1.49528,0.0448819 2.81811,0.100394 3.44528,0.161811 9.30473,0.901182 15.8764,4.10433 20.2382,8.6256 10.6559,11.041 10.0925,28.702 -0.349607,39.5244zm47.2359 12.8492c7.3252,7.58977 17.7213,13.3288 31.5047,14.6634 1.0252,0.0992127 2.78386,0.177165 4.67953,0.233858 2.49803,0.0767717 5.55355,0.122835 7.02875,0.133465 17.7815,0.138189 29.4107,-5.63622 36.8221,-14.7567 13.4421,-16.5461 13.4622,-48.7512 0,-65.3221 -7.41142,-9.12048 -19.0406,-14.8937 -36.8221,-14.7567 -1.4752,0.011811 -4.53189,0.056693 -7.02993,0.132284 -1.89567,0.0578741 -3.65197,0.135827 -4.67835,0.233858 -14.165,1.37126 -24.5681,6.66615 -31.8544,14.2169 -3.06733,3.17835 -5.58189,6.68504 -7.55316,10.4032l-18.0732 0c-1.97008,-3.71811 -4.48465,-7.22481 -7.55316,-10.4032 -7.28504,-7.55079 -17.6894,-12.8457 -31.8532,-14.2169 -1.02638,-0.0980316 -2.78386,-0.175984 -4.67835,-0.233858 -2.49685,-0.0755906 -5.55473,-0.120473 -7.02993,-0.132284 -17.7827,-0.137008 -29.4107,5.63622 -36.8221,14.7567 -13.4634,16.5709 -13.4421,48.776 0,65.3221 7.41142,9.12048 19.0406,14.8949 36.8221,14.7567 1.47402,-0.0106299 4.53071,-0.056693 7.02756,-0.133465 1.89567,-0.056693 3.6567,-0.134646 4.68071,-0.233858 13.7835,-1.33465 24.1795,-7.07363 31.5036,-14.6634 9.60355,-9.95316 14.0705,-23.2524 13.1788,-36.2351l7.52127 0c-0.890552,12.9827 3.5752,26.2819 13.1788,36.2351zm13.0075 -52.3737c4.36418,-4.52126 10.9347,-7.72442 20.2394,-8.6256 0.625985,-0.0614174 1.95,-0.116929 3.4441,-0.161811 2.60669,-0.0779528 5.35985,-0.124016 6.5941,-0.132284 11.4083,-0.0874016 18.3827,3.01772 22.3772,7.93347 7.90867,9.73465 7.87678,32.2512 0,41.9469 -3.99449,4.91457 -10.9689,8.02205 -22.3772,7.93347 -1.23425,-0.00944883 -3.98622,-0.0531496 -6.59174,-0.133465 -1.49528,-0.0448819 -2.81929,-0.100394 -3.44646,-0.16063 -25.3051,-2.44961 -37.1729,-31.0536 -20.2394,-48.6z"/>
  <path class="fil2" d="M922.272 389.331c5.13189,0 9.29174,4.15985 9.29174,9.29174 0,5.13071 -4.15985,9.29174 -9.29174,9.29174l-7.32875 0c-5.13189,0 -9.29174,-4.16103 -9.29174,-9.29174 0,-5.13189 4.15985,-9.29174 9.29174,-9.29174l7.32875 0zm210.787 0c5.13071,0 9.29174,4.15985 9.29174,9.29174 0,5.13071 -4.16103,9.29174 -9.29174,9.29174l-7.32875 0c-5.13189,0 -9.29174,-4.16103 -9.29174,-9.29174 0,-5.13189 4.15985,-9.29174 9.29174,-9.29174l7.32875 0z"/>
  <path class="fil0" d="M519.163 1142.21c92.1603,0 175.599,37.3583 235.995,97.7552 60.3969,60.3957 97.7552,143.835 97.7552,235.995 0,92.1603 -37.3583,175.599 -97.7552,235.996 -60.3957,60.3957 -143.835,97.754 -235.995,97.754 -92.1603,0 -175.599,-37.3583 -235.996,-97.754 -60.3957,-60.3969 -97.754,-143.836 -97.754,-235.996 0,-92.1603 37.3583,-175.599 97.754,-235.995 60.3969,-60.3969 143.836,-97.7552 235.996,-97.7552zm214.785 118.965c-54.965,-54.9662 -130.905,-88.9654 -214.785,-88.9654 -83.8796,0 -159.82,33.9992 -214.786,88.9654 -54.965,54.965 -88.9642,130.905 -88.9642,214.785 0,83.8796 33.9992,159.82 88.9642,214.786 54.9662,54.965 130.906,88.9642 214.786,88.9642 83.8796,0 159.82,-33.9992 214.785,-88.9642 54.9662,-54.9662 88.9654,-130.906 88.9654,-214.786 0,-83.8796 -33.9992,-159.82 -88.9654,-214.785z"/>
  <path class="fil0" d="M1550.41 1142.21c92.1603,0 175.599,37.3583 235.995,97.7552 60.3969,60.3957 97.7552,143.835 97.7552,235.995 0,92.1603 -37.3583,175.599 -97.7552,235.996 -60.3957,60.3957 -143.835,97.754 -235.995,97.754 -92.1603,0 -175.599,-37.3583 -235.996,-97.754 -60.3957,-60.3969 -97.754,-143.836 -97.754,-235.996 0,-92.1603 37.3583,-175.599 97.754,-235.995 60.3969,-60.3969 143.836,-97.7552 235.996,-97.7552zm214.785 118.965c-54.965,-54.9662 -130.905,-88.9654 -214.785,-88.9654 -83.8796,0 -159.82,33.9992 -214.786,88.9654 -54.965,54.965 -88.9642,130.905 -88.9642,214.785 0,83.8796 33.9992,159.82 88.9642,214.786 54.9662,54.965 130.906,88.9642 214.786,88.9642 83.8796,0 159.82,-33.9992 214.785,-88.9642 54.9662,-54.9662 88.9654,-130.906 88.9654,-214.786 0,-83.8796 -33.9992,-159.82 -88.9654,-214.785z"/>
  <path class="fil0" d="M1024 163.166c92.1603,0 175.599,37.3583 235.995,97.7552 60.3969,60.3957 97.7552,143.835 97.7552,235.995 0,92.1603 -37.3583,175.599 -97.7552,235.996 -60.3957,60.3957 -143.835,97.754 -235.995,97.754 -92.1603,0 -175.599,-37.3583 -235.996,-97.754 -60.3957,-60.3969 -97.754,-143.836 -97.754,-235.996 0,-92.1603 37.3583,-175.599 97.754,-235.995 60.3969,-60.3969 143.836,-97.7552 235.996,-97.7552zm214.785 118.965c-54.965,-54.9662 -130.905,-88.9654 -214.785,-88.9654 -83.8796,0 -159.82,33.9992 -214.786,88.9654 -54.965,54.965 -88.9642,130.905 -88.9642,214.785 0,83.8796 33.9992,159.82 88.9642,214.786 54.9662,54.965 130.906,88.9642 214.786,88.9642 83.8796,0 159.82,-33.9992 214.785,-88.9642 54.9662,-54.9662 88.9654,-130.906 88.9654,-214.786 0,-83.8796 -33.9992,-159.82 -88.9654,-214.785z"/>
 </g>
 <rect class="fil19" width="2048" height="2048"/>
</svg>
