<?xml version="1.0" encoding="UTF-8"?>
<!DOCTYPE svg PUBLIC "-//W3C//DTD SVG 1.1//EN" "http://www.w3.org/Graphics/SVG/1.1/DTD/svg11.dtd">
<!-- Creator: CorelDRAW -->
<svg xmlns="http://www.w3.org/2000/svg" xml:space="preserve" width="2048px" height="2048px" style="shape-rendering:geometricPrecision; text-rendering:geometricPrecision; image-rendering:optimizeQuality; fill-rule:evenodd; clip-rule:evenodd"
viewBox="0 0 2048 2048"
 xmlns:xlink="http://www.w3.org/1999/xlink">
 <defs>
  <style type="text/css">
   <![CDATA[
    .fil19 {fill:none}
    .fil18 {fill:#2F2F2F}
    .fil3 {fill:#323232}
    .fil12 {fill:#3A3A3A}
    .fil5 {fill:#4E4E4F}
    .fil13 {fill:#545454}
    .fil17 {fill:#767676}
    .fil11 {fill:#959595}
    .fil8 {fill:#A4A4A5}
    .fil1 {fill:#B2B2B2}
    .fil4 {fill:#B5B5B6}
    .fil2 {fill:#C0C0C1}
    .fil14 {fill:#CACACA}
    .fil9 {fill:#D4D4D4}
    .fil16 {fill:#E6E6E7}
    .fil6 {fill:#2F2F2F;fill-rule:nonzero}
    .fil0 {fill:#626263;fill-rule:nonzero}
    .fil15 {fill:#888888;fill-rule:nonzero}
    .fil7 {fill:#AFAFAF;fill-rule:nonzero}
    .fil10 {fill:#E5E5E6;fill-rule:nonzero}
   ]]>
  </style>
 </defs>
 <g id="Layer_x0020_1">
  <metadata id="CorelCorpID_0Corel-Layer"/>
  <g id="_438318008">
   <g>
    <path id="_438320384" class="fil0" d="M1272.49 813.174l435.685 18.691c4.92993,-26.6705 -1.66536,-78.306 -12.3484,-115.028 -13.1445,-45.1937 -148.454,-127.75 -202.602,-130.593 -49.0583,-2.57599 -193.057,68.6634 -205.169,106.107 -11.6563,36.0402 -20.4626,91.8237 -15.5658,120.823z"/>
    <polygon id="_438321008" class="fil1" points="1448.84,552.008 1532.1,555.579 1532.1,617.181 1490.44,636.486 1448.84,613.608 "/>
    <path id="_438320504" class="fil2" d="M1615.53 429.277c0,88.5792 -66.7312,163.899 -131.251,158.205 -60.3957,-5.32914 -118.859,-86.0209 -118.859,-168.936 0,-147.137 62.8855,-153.752 120.892,-152.387 63.9567,1.50591 129.219,9.30001 129.219,163.117z"/>
    <path id="_438320048" class="fil3" d="M1628.95 359.563c0,33.8103 -8.51339,83.6516 -23.1106,97.1824 -39.8587,-66.867 21.2067,-110.32 -21.1028,-132.461 -19.2874,-10.0925 -53.837,-17.3622 -99.4513,-17.1378 -167.76,0.822048 -62.3339,53.4745 -110.176,139.712 -14.6055,-14.7839 -23.1225,-65.3634 -23.1225,-99.1772 0,-90.8717 112.469,-103.76 182.531,-86.3753 56.2926,13.9677 94.4316,58.891 94.4316,98.2572z"/>
    <path id="_438320024" class="fil2" d="M1361.42 414.883c6.70749,0.288189 16.9536,14.7165 16.9536,32.8961 0,18.1784 -5.4378,32.6823 -12.1465,32.3941 -6.70749,-0.287008 -9.61536,-15.1488 -9.61536,-33.3284 0,-18.1784 -1.9004,-32.2488 4.80827,-31.9618z"/>
    <path id="_438320240" class="fil2" d="M1619.52 425.955c-6.70749,-0.287008 -16.9536,13.2614 -16.9536,31.441 0,18.1784 5.4378,33.1488 12.1465,33.437 6.70749,0.288189 9.61536,-14.3244 9.61536,-32.504 0,-18.1784 1.9004,-32.0859 -4.80827,-32.374z"/>
    <path id="_438320144" class="fil4" d="M1490.19 632.444l23.713 14.8689c4.77992,15.2823 -9.70513,23.3079 -23.3374,22.8957 -1.42913,-0.0437008 -2.87126,-0.172441 -4.28504,-0.381496 -12.1843,-1.80591 -23.4425,-10.8106 -19.3335,-24.5433l23.2429 -12.8398z"/>
    <polygon id="_438319112" class="fil4" points="1464.83,820.992 1516.1,823.641 1497.1,652.281 1490.46,642.915 1484.02,650.504 "/>
    <polygon id="_438319160" class="fil5" points="1434.57,578.348 1490.47,632.713 1450.69,658.391 1423.83,597.941 "/>
    <polygon id="_438319448" class="fil5" points="1546.37,583.144 1490.47,632.713 1530.26,661.804 1557.11,603.658 "/>
    <path id="_438318944" class="fil6" d="M1377.91 622.613c0,-7.22127 -12.613,-2.20394 -12.613,7.51418l1.0252 176.824c0,4.89567 2.51693,8.97284 5.62205,9.10513 3.10394,0.133465 5.62205,-3.72756 5.62205,-8.62205l0.343701 -184.821z"/>
    <path id="_438319256" class="fil6" d="M1360.19 816.937l1.31221 -123.671c0,-4.89449 4.60512,-8.66575 10.2874,-8.42245 5.68111,0.244488 10.2874,4.41024 10.2874,9.30591l0.421654 123.744 -22.3087 -0.956694z"/>
    <path id="_438318200" class="fil6" d="M1599.25 632.109c0,-7.22245 12.6118,-1.12205 12.6118,8.59607l-1.02402 176.737c0,4.89449 -2.51811,8.75552 -5.62205,8.62205 -3.10512,-0.133465 -5.62205,-4.20945 -5.62205,-9.10513l-0.343701 -184.85z"/>
    <path id="_438318680" class="fil6" d="M1616.97 827.952l-1.31221 -123.782c0,-4.89567 -4.6063,-9.06142 -10.2886,-9.30591 -5.68111,-0.243307 -10.2862,3.52796 -10.2862,8.42363l-0.421654 123.708 22.3087 0.956694z"/>
    <path id="_438318536" class="fil6" d="M1518.12 460.134c4.11496,4.59567 10.0807,8.20749 18.15,9.36261 0.572835,0.0814961 1.7811,0.186614 3.14528,0.287008 2.37756,0.177165 4.88977,0.327166 6.01536,0.383859 10.4114,0.530315 16.7764,-2.13543 20.4201,-6.62835 7.18938,-8.863 7.21772,-30.1607 0,-39.6803 -3.6437,-4.80591 -10.0087,-8.01733 -20.4201,-8.37993 -1.12559,-0.0389764 -3.63898,-0.105118 -6.01772,-0.133465 -1.36299,-0.0153543 -2.57126,-0.0153543 -3.14292,0.0177165 -8.49213,0.488977 -14.4874,3.26103 -18.4689,7.36772 -9.72402,10.0276 -9.21024,26.7555 0.318898,37.4032zm-43.1067 10.3051c-6.68386,6.89292 -16.1705,11.915 -28.7481,12.639 -0.935434,0.0519685 -2.54173,0.0578741 -4.27205,0.0377953 -2.27835,-0.0259843 -5.06811,-0.102756 -6.41339,-0.15 -16.2272,-0.565748 -26.8394,-6.48308 -33.6024,-15.4016 -12.2669,-16.1776 -12.2858,-46.6429 0,-61.7906 6.763,-8.33741 17.3752,-13.3441 33.6024,-12.5185 1.34646,0.068504 4.13622,0.231496 6.41575,0.400394 1.72914,0.12874 3.33307,0.270473 4.26969,0.403937 12.9248,1.85315 22.4185,7.26851 29.0681,14.6965 2.79921,3.12638 5.0941,6.54213 6.89292,10.1362l16.4929 0.707481c1.79882,-3.43937 4.09252,-6.65788 6.89292,-9.54568 6.64843,-6.85749 16.1421,-11.4579 29.0681,-12.2008 0.936615,-0.0531496 2.53937,-0.0578741 4.26969,-0.0377953 2.27835,0.0259843 5.06811,0.102756 6.41575,0.15 16.2272,0.565748 26.8382,6.48308 33.6012,15.4016 12.2858,16.2 12.2681,46.6654 0,61.7906 -6.763,8.33741 -17.374,13.3441 -33.6012,12.5185 -1.34646,-0.0696851 -4.13504,-0.231496 -6.41457,-0.401575 -1.73032,-0.127559 -3.33544,-0.270473 -4.27087,-0.403937 -12.5776,-1.80236 -22.0654,-7.63938 -28.7492,-15.1051 -8.76379,-9.79253 -12.8398,-22.5461 -12.0272,-34.7929l-6.86339 -0.295276c0.81378,12.3165 -3.26221,24.7217 -12.0272,33.7618zm-11.8689 -50.0528c-3.9815,-4.44803 -9.97796,-7.73623 -18.4689,-8.95276 -0.572835,-0.0814961 -1.77992,-0.185433 -3.1441,-0.287008 -2.37874,-0.175984 -4.89095,-0.325985 -6.01772,-0.383859 -10.4102,-0.529134 -16.7752,2.13543 -20.4201,6.62953 -7.21772,8.89961 -7.18819,30.1996 0,39.6792 3.64488,4.80591 10.0099,8.01733 20.4201,8.38111 1.12677,0.0389764 3.6378,0.105118 6.01536,0.132284 1.36536,0.0165354 2.57244,0.0153543 3.14646,-0.0177165 23.0918,-1.32638 33.9213,-27.9189 18.4689,-45.1807z"/>
    <path id="_438318416" class="fil6" d="M1583.3 423.228c-4.68307,-0.200788 -8.47914,3.57166 -8.47914,8.42599 0,4.85315 3.79607,8.95276 8.47914,9.15355l6.68859 0.287008c4.68307,0.200788 8.48032,-3.57284 8.48032,-8.42599 0,-4.85433 -3.79725,-8.95276 -8.48032,-9.15355l-6.68859 -0.287008zm-192.357 -8.25237c-4.68189,-0.200788 -8.47914,3.57166 -8.47914,8.42599 0,4.85315 3.79725,8.95276 8.47914,9.15355l6.68859 0.287008c4.68307,0.200788 8.48032,-3.57284 8.48032,-8.42599 0,-4.85433 -3.79725,-8.95276 -8.48032,-9.15355l-6.68859 -0.287008z"/>
   </g>
   <g>
    <path id="_438318320" class="fil6" d="M746.369 629.773c0.287008,-13.2969 -0.737008,-142.029 -1.48228,-180.026 -0.409843,-20.8914 -0.733465,-37.4292 -0.713386,-40.226 0.473622,-63.5209 -18.7205,-103.172 -49.0536,-126.685 -29.6173,-22.9606 -69.1595,-29.6587 -110.946,-27.8835 -0.608268,-0.0283465 -1.22717,-0.0153543 -1.85433,0.0389764l0.0011811 0.0555119c-42.2611,3.69213 -82.3123,15.6555 -112.234,42.8611 -30.3331,27.5788 -49.5272,69.7985 -49.0548,133.257 0.0413386,5.54882 1.3878,128.571 2.64449,167.438 0.63189,19.4917 1.24606,37.2048 1.67362,47.2134 8.99883,-7.11378 18.5362,-13.4776 28.5603,-18.9579l-0.206693 -0.56693 13.4516 -6.05079c11.8122,-5.31378 24.9744,-2.00433 32.7272,7.6252 1.88858,2.34567 4.06536,4.46575 6.22323,6.53859 2.4626,2.36575 5.03268,4.61339 7.71142,6.71575 9.91064,7.78229 21.3461,13.7398 33.4229,17.4284 11.2937,3.44882 23.3575,4.97363 35.3776,3.86929 16.8815,-1.55079 33.6579,-6.04843 49.0288,-14.4662 13.128,-7.18938 24.5669,-16.9335 33.8894,-28.9429l1.69606 -2.30315c8.10591,-11.002 21.8988,-15.2764 33.7607,-10.9417 16.2791,5.9504 31.5,14.0421 45.3768,24.0095z"/>
    <g>
     <path id="_438318632" class="fil7" d="M341.772 838.674l481.349 -32.2406c5.44607,-30.065 -1.84016,-86.3127 -13.6429,-125.587 -14.5228,-48.3343 -164.014,-123.119 -223.836,-119.686 -54.1996,3.10866 -213.291,99.2965 -226.673,142.135 -12.8776,41.2323 -22.6075,103.932 -17.198,135.378z"/>
     <path id="_438317672" class="fil8" d="M501.67 591.969c-63.189,32.7024 -133.967,83.3729 -142.7,111.327 -12.8776,41.2323 -22.6075,103.932 -17.198,135.378l230.889 -15.4654 -70.9914 -231.24z"/>
     <path id="_438317888" class="fil8" d="M663.799 580.229l-71.2571 241.649 230.58 -15.4441c5.44607,-30.065 -1.84016,-86.3127 -13.6417,-125.587 -9.81379,-32.6575 -81.2398,-77.3906 -144.993,-101.911l-0.687402 1.29331z"/>
    </g>
    <path id="_438317480" class="fil9" d="M528.291 553.487l109.258 -7.31812 0 23.5004c8.67993,2.60197 17.7284,5.72245 26.9374,9.26576l-0.687402 1.29331 -0.453544 1.5378c-10.6406,18.7937 -42.7654,34.0843 -80.7438,36.6272 -37.9772,2.5441 -70.102,-8.44253 -80.7426,-25.8106l-0.187795 -0.614174c9.09922,-4.70788 18.0425,-9.04489 26.6197,-12.887l0 -25.5945z"/>
    <path id="_438317912" class="fil10" d="M630.247 368.514c16.3217,3.08032 46.213,16.4977 50.1744,34.2544l-0.011811 0.00236221 0.0590552 0.357874 -0.0165354 0.00472441 0.0011811 0.00590552 0.0011811 0.00354331 0.0011811 0.00590552 0.0011811 0.00472441 0 0.00590552 0.0011811 0.00472441 0.0011811 0.00590552 0.0011811 0.00354331c0.0165354,0.0838583 0.0354331,0.165354 0.0531496,0.246851l0.0011811 0.00472441 0.0011811 0.00472441 0.0011811 0.00590552 0 0.00472441 0.0011811 0.00472441 0.00236221 0.00472441 0 0.0011811 0 0.00472441 0.0011811 0.00472441c2.48622,15.4347 2.28425,77.5725 -0.904725,93.267 -4.09016,20.1319 -13.0973,39.3792 -27.6532,54.913 -15.9532,17.0244 -36.8811,27.0425 -59.1367,31.4327 -43.0618,8.49686 -79.689,-13.9181 -97.8568,-50.1225 -5.78032,-11.5181 -9.69331,-70.3382 -11.3504,-84.0981 18.5776,-21.1807 32.6705,-29.0374 45.4866,-36.1831 13.8106,-7.70079 26.3469,-14.6929 40.6252,-32.7236 -0.764174,10.8343 2.01851,22.6122 -2.6126,34.0772 4.99843,-0.912993 10.1705,-2.84055 15.0532,-5.20512 41.7142,-20.2051 48.476,-58.9772 63.9272,-99.2587 -2.15551,17.4591 -10.0358,43.6961 -12.3508,49.8839 -1.13386,3.03071 -2.29606,6.05906 -3.50197,9.07087z"/>
    <path id="_438318032" class="fil11" d="M582.602 618.394c-37.9772,2.5441 -70.102,-8.44253 -80.7426,-25.8106l6.59292 21.4748c13.6973,12.8681 42.3048,20.0858 74.4674,17.9315 31.5839,-2.11536 59.5855,-12.7819 73.5686,-26.9658l6.85749 -23.2571c-0.276378,0.486615 -0.565748,0.972048 -0.870473,1.45276 -4.86969,8.47796 -14.6291,16.1398 -27.489,22.1256 -14.3988,6.93898 -32.5973,11.7236 -52.3843,13.0488z"/>
   </g>
  </g>
  <g id="_438316544">
   <path id="_438317024" class="fil12" d="M1024 1427.59c432.623,0 783.334,-168.721 783.334,-376.846 0,-10.2319 -0.848032,-20.3693 -2.51103,-30.3957 -32.1697,193.912 -369.468,346.452 -780.823,346.452 -411.353,0 -748.652,-152.538 -780.823,-346.451 -1.66299,10.0264 -2.51103,20.1626 -2.51103,30.3945 0,208.126 350.711,376.846 783.334,376.846z"/>
   <ellipse id="_438317072" class="fil13" cx="1024" cy="997.25" rx="783.334" ry="376.846"/>
  </g>
  <g id="_438316856">
   <rect id="_438316880" class="fil14" x="929.038" y="1259.89" width="189.92" height="232.586"/>
   <path id="_438317264" class="fil15" d="M1140.67 1321.07c83.543,21.9862 155.767,66.6709 206.923,125.603 51.1961,58.9819 81.6343,132.183 81.6343,211.195l0 92.2324c0,23.6563 -22.0855,42.8363 -49.3158,42.8363l-711.825 0c-27.2327,0 -49.3158,-19.1799 -49.3158,-42.8363l0 -92.2324c0,-79.0123 30.4382,-152.215 81.6343,-211.199 46.6241,-53.7119 144.349,-118.637 215.4,-127.326l109.133 75.7288 115.732 -74.002z"/>
   <path id="_438317240" class="fil16" d="M835.608 976.885l368.124 0 0 161.473c0,101.234 -82.8249,184.062 -184.062,184.062l0 0c-101.235,0 -184.062,-82.8249 -184.062,-184.062l0 -161.473z"/>
   <path id="_438317216" class="fil17" d="M1024.93 1329.98c-60.9615,0 -113.423,-19.6323 -136.813,-47.8099l-1.86732 68.165c23.3906,28.1811 75.8457,47.8134 136.815,47.8134 60.965,0 113.418,-19.6358 136.812,-47.8122l1.86496 -68.1603c-23.3918,28.1764 -75.8469,47.804 -136.812,47.804z"/>
   <path id="_438316904" class="fil18" d="M1207.98 1064.76c-31.3193,187.067 -150.81,210.708 -214.009,205.891 -52.5213,-4.00512 -104.517,-49.9571 -143.986,-125.372l-9.95906 -45.6638c-8.35158,-26.7744 -13.0973,-54.6201 -13.0973,-81.8953 0,-65.0623 23.0067,-107.835 60.1985,-134.795 35.2359,-25.5449 81.8694,-34.9559 132.547,-34.9559 50.6811,0 97.3111,9.41103 132.548,34.9559 37.1929,26.9599 60.1985,69.73 60.1985,134.795l-4.44095 47.0398z"/>
   <path id="_438317168" class="fil18" d="M1381.11 1800.03l-714.217 0c-3.33425,-317.817 710.819,-315.202 714.217,0z"/>
  </g>
 </g>
 <rect class="fil19" width="2048" height="2048"/>
</svg>
