<?xml version="1.0" encoding="UTF-8"?>
<!DOCTYPE svg PUBLIC "-//W3C//DTD SVG 1.1//EN" "http://www.w3.org/Graphics/SVG/1.1/DTD/svg11.dtd">
<!-- Creator: CorelDRAW -->
<svg xmlns="http://www.w3.org/2000/svg" xml:space="preserve" width="2048px" height="2048px" style="shape-rendering:geometricPrecision; text-rendering:geometricPrecision; image-rendering:optimizeQuality; fill-rule:evenodd; clip-rule:evenodd"
viewBox="0 0 2048 2048"
 xmlns:xlink="http://www.w3.org/1999/xlink">
 <defs>
  <style type="text/css">
   <![CDATA[
    .fil2 {fill:none}
    .fil1 {fill:#424242}
    .fil0 {fill:#424242;fill-rule:nonzero}
   ]]>
  </style>
 </defs>
 <g id="Layer_x0020_1">
  <metadata id="CorelCorpID_0Corel-Layer"/>
  <path class="fil0" d="M1439.64 1251.29c-25.3335,47.1756 -59.015,89.2123 -99.0639,124.148 -0.520867,-19.6394 -3.01063,-39.1914 -7.47756,-58.3359l-11.7886 -50.5288 -3.75118 3.12638c-1.71851,-4.02402 -3.52796,-8.00788 -5.42717,-11.9504l0.719292 -0.804331 -11.7862 -20.126c-12.3036,-21.0095 -27.2445,-40.4162 -44.3658,-57.7241 -0.333071,-0.335433 -0.666142,-0.670867 -1.00039,-1.0063 -0.755906,-0.755906 -1.51772,-1.50709 -2.28071,-2.25355 6.94843,-10.5874 13.0984,-21.7595 18.3626,-33.4288 13.6725,-30.3047 21.2823,-64.0323 21.2823,-99.6426 0,-20.3823 -2.4378,-39.978 -7.02875,-58.5225 -0.480709,-1.93937 -0.98504,-3.87048 -1.51181,-5.79331 2.15315,0.0779528 4.31339,0.11811 6.47717,0.11811 47.0363,0 91.7989,-18.5492 125.053,-51.802 17.2914,-17.2902 30.6036,-37.6937 39.4028,-59.9091 7.95001,18.2622 14.6976,37.1587 20.1425,56.5902 10.6807,38.1142 16.3937,78.1418 16.3937,119.319 0,75.319 -18.9496,146.33 -52.3512,208.526z"/>
  <path class="fil0" d="M1188.57 699.28c26.2134,-26.2158 62.4284,-42.43 102.428,-42.43 39.9981,0 76.2119,16.2154 102.426,42.43 26.2158,26.2134 42.43,62.4284 42.43,102.428 0,39.9969 -16.2142,76.2131 -42.43,102.426 -26.2146,26.2146 -62.4284,42.43 -102.426,42.43 -39.9981,0 -76.2131,-16.2142 -102.428,-42.4288 -26.2146,-26.2158 -42.4288,-62.4296 -42.4288,-102.428 0,-39.9981 16.2142,-76.2131 42.4288,-102.428z"/>
  <path class="fil0" d="M1054.17 911.857l-158.087 -158.087 -0.00236221 0.00236221c-12.4961,-12.4961 -12.4961,-32.7591 0,-45.2552l0.18189 -0.177165 316.353 -316.353 -0.00236221 -0.00236221c12.4961,-12.4961 32.7591,-12.4961 45.2552,0l0.177165 0.18189 158.087 158.087 0.00236221 -0.00236221c12.4961,12.4961 12.4961,32.7591 0,45.2552l-0.18189 0.177165 -47.1615 47.1615c-23.9622,-11.7449 -50.4957,-17.9941 -77.7945,-17.9941 -47.0374,0 -91.8013,18.548 -125.055,51.8032 -33.2528,33.254 -51.8008,78.0178 -51.8008,125.054 0,27.2988 6.24922,53.8323 17.9929,77.7945l-32.5335 32.5335 0.00236221 0.00236221c-12.4961,12.4961 -32.7591,12.4961 -45.2552,0l-0.177165 -0.18189z"/>
  <path class="fil0" d="M1384.48 265.374l158.087 158.087 0.18189 0.177165c12.4961,12.4961 12.4961,32.7591 0,45.2552l-0.00236221 -0.00236221 -63.1276 63.1276 -0.177165 0.18189c-12.4961,12.4961 -32.7591,12.4961 -45.2552,0l0.00236221 -0.00236221 -158.086 -158.087 -0.18189 -0.177165c-12.4961,-12.4961 -12.4961,-32.7591 0,-45.2552l0.00236221 0.00236221 63.1264 -63.1276 0.177165 -0.18189c12.4961,-12.4961 32.7591,-12.4961 45.2552,0l-0.00236221 0.00236221z"/>
  <path class="fil0" d="M1339.05 563.672l-94.7824 -94.7812 -0.00236221 0.00236221c-12.4961,-12.4961 -12.4961,-32.7591 0,-45.2552l0.18189 -0.177165 63.1276 -63.1276 -0.00236221 -0.00236221c12.4961,-12.4961 32.7591,-12.4961 45.2552,0l0.177165 0.18189 94.7812 94.7824 0.00236221 -0.00236221c12.4961,12.4961 12.4961,32.7591 0,45.2552l-0.18189 0.177165 -63.1264 63.1264 0.00236221 0.00236221c-12.4961,12.4961 -32.7591,12.4961 -45.2552,0l-0.177165 -0.18189z"/>
  <path class="fil0" d="M941.338 708.518l158.087 158.087 0.18189 0.177165c12.4961,12.4961 12.4961,32.7591 0,45.2552l-0.00236221 -0.00236221 -63.1276 63.1276 -0.177165 0.18189c-12.4961,12.4961 -32.7591,12.4961 -45.2552,0l0.00236221 -0.00236221 -158.087 -158.087 -0.18189 -0.177165c-12.4961,-12.4961 -12.4961,-32.7591 0,-45.2552l0.00236221 0.00236221 63.1276 -63.1276 0.177165 -0.18189c12.4961,-12.4961 32.7591,-12.4961 45.2552,0l-0.00236221 0.00236221z"/>
  <path class="fil0" d="M895.908 1006.82l-94.7812 -94.7824 -0.00236221 0.00236221c-12.4961,-12.4961 -12.4961,-32.7591 0,-45.2552l0.18189 -0.177165 63.1264 -63.1276 -0.00236221 -0.00236221c12.4961,-12.4961 32.7591,-12.4961 45.2552,0l0.177165 0.18189 94.7824 94.7824 0.00236221 -0.00236221c12.4961,12.4961 12.4961,32.7591 0,45.2552l-0.18189 0.177165 -63.1276 63.1276 0.00236221 0.00236221c-12.4961,12.4961 -32.7591,12.4961 -45.2552,0l-0.177165 -0.18189z"/>
  <path class="fil0" d="M599.54 932.03l255.731 236.634c-3.36378,3.06378 -6.65788,6.20552 -9.8752,9.42284 -12.9697,12.9697 -24.7063,27.1559 -35.0114,42.3296 -8.44135,12.4311 -15.9154,25.5118 -22.3311,39.0992 -8.37993,17.7496 -14.9173,36.2953 -19.5225,55.3371l-266.172 -282.12c-0.305906,-0.283465 -0.609449,-0.571654 -0.907087,-0.869292 -12.4961,-12.4961 -12.4961,-32.7591 0,-45.2552l0.00236221 0.00236221 53.517 -53.5182c12.0626,-12.4158 31.8992,-12.9992 44.6752,-1.17756l-0.106299 0.114567z"/>
  <path class="fil0" d="M577.173 1577.37l257.765 0c3.3815,3.75118 6.86575,7.42796 10.4575,11.0197 4.49764,4.49646 9.14056,8.84646 13.9228,13.0394 53.0563,46.5284 120.654,71.9422 191.229,71.9422 70.5745,0 138.173,-25.4138 191.229,-71.9422 4.78229,-4.19292 9.4252,-8.54292 13.9228,-13.0394 3.59055,-3.59055 7.07481,-7.26615 10.4563,-11.0197l257.765 0c17.6728,0 32.0008,14.328 32.0008,32.0008l0 150.63c0,17.6728 -14.328,32.0008 -32.0008,32.0008l-946.748 0c-17.6728,0 -32.0008,-14.328 -32.0008,-32.0008l0 -150.63c0,-17.6728 14.328,-32.0008 32.0008,-32.0008z"/>
  <path class="fil1" d="M1233.07 1200.71c-46.7138,-46.7126 -111.249,-75.6095 -182.524,-75.6095 -65.9174,0 -126.071,24.7158 -171.693,65.3823 -3.70748,3.30591 -7.3193,6.71575 -10.8307,10.2272 -11.5299,11.5299 -21.9744,24.1465 -31.167,37.6807 -7.48111,11.0162 -14.1331,22.6394 -19.8662,34.7823 -10.3382,21.8977 -17.687,45.4819 -21.5209,70.2272 -2.01142,12.9839 -3.05551,26.2866 -3.05551,39.8327 0,71.2749 28.8969,135.81 75.6095,182.524 4.00276,4.00276 8.13544,7.87442 12.3933,11.6079 45.4288,39.8445 104.963,64.0016 170.131,64.0016 65.1674,0 124.702,-24.1571 170.131,-64.0016 4.25788,-3.73347 8.39056,-7.60512 12.3933,-11.6079 42.7489,-42.75 70.578,-100.427 74.9918,-164.535 0.409843,-5.94331 0.617717,-11.9421 0.617717,-17.9894 0,-20.2512 -2.33268,-39.9579 -6.7441,-58.8662 -0.00708662,0.00590552 -0.0141732,0.0129921 -0.0212599,0.0188977 -1.7504,-7.48938 -3.82677,-14.8571 -6.21378,-22.0878 -5.6941,-17.2477 -13.2059,-33.737 -22.311,-49.2485 0.0200788,-0.022441 0.0413386,-0.0437008 0.0614174,-0.0661418 -10.9925,-18.7713 -24.2894,-36.0307 -39.502,-51.3898 -0.291733,-0.295276 -0.584646,-0.589371 -0.878741,-0.883465zm-248.247 116.798c16.8225,-16.8225 40.0607,-27.228 65.7237,-27.228 25.6642,0 48.9024,10.4055 65.7225,27.228 16.8225,16.8225 27.228,40.0607 27.228,65.7237 0,25.6642 -10.4055,48.9024 -27.228,65.7225 -16.8201,16.8225 -40.0583,27.228 -65.7225,27.228 -25.663,0 -48.9012,-10.4055 -65.7237,-27.228 -16.8225,-16.8201 -27.228,-40.0583 -27.228,-65.7225 0,-25.663 10.4055,-48.9012 27.228,-65.7237z"/>
 </g>
 <rect class="fil2" width="2048" height="2048"/>
</svg>
