<?xml version="1.0" encoding="UTF-8"?>
<!DOCTYPE svg PUBLIC "-//W3C//DTD SVG 1.1//EN" "http://www.w3.org/Graphics/SVG/1.1/DTD/svg11.dtd">
<!-- Creator: CorelDRAW -->
<svg xmlns="http://www.w3.org/2000/svg" xml:space="preserve" width="2048px" height="2048px" style="shape-rendering:geometricPrecision; text-rendering:geometricPrecision; image-rendering:optimizeQuality; fill-rule:evenodd; clip-rule:evenodd"
viewBox="0 0 2048 2048"
 xmlns:xlink="http://www.w3.org/1999/xlink">
 <defs>
  <style type="text/css">
   <![CDATA[
    .fil1 {fill:none}
    .fil0 {fill:#424242;fill-rule:nonzero}
   ]]>
  </style>
 </defs>
 <g id="Layer_x0020_1">
  <metadata id="CorelCorpID_0Corel-Layer"/>
  <path class="fil0" d="M1049.35 1060.37l-446.26 0c-165.861,0 -229.231,65.6339 -229.231,147.752 0,60.1323 30.1406,129.52 77.8879,191.368 48.6296,62.9918 114.913,117.281 186.073,145.745 123.267,49.3075 263.351,16.7138 348.475,-196.075l-0.0779528 -0.0307087c5.08465,-12.7122 17.4083,-20.3646 30.3331,-20.1166l32.7992 0 33.4193 0c14.2311,0 26.2914,9.29174 30.45,22.1386 85.2012,210.983 224.782,243.235 347.66,194.084 71.1603,-28.4634 137.444,-82.7528 186.073,-145.745 47.7473,-61.8485 77.8879,-131.236 77.8879,-191.368 0,-82.1186 -63.3697,-147.752 -229.231,-147.752l-446.26 0zm-446.26 -64.0016l446.26 0 446.26 0c212.167,0 293.233,94.0654 293.233,211.754 0,74.4296 -35.3658,157.798 -91.3902,230.368 -55.1422,71.4284 -130.909,133.231 -212.823,165.996 -150.53,60.2115 -319.586,26.6752 -423.07,-211.472l-12.2091 0 -12.2102 0c-103.484,238.147 -272.537,271.684 -423.069,211.472 -81.9142,-32.765 -157.681,-94.5674 -212.823,-165.996 -56.0245,-72.5705 -91.3902,-155.941 -91.3902,-230.368 0,-117.689 81.0615,-211.754 293.233,-211.754z"/>
  <path class="fil0" d="M603.091 1088.69l892.52 0c28.8709,0 79.1623,2.43071 120.986,16.9937 32.2843,11.2406 59.7851,29.7862 72.1441,59.8607 7.62638,18.5599 9.00473,39.2422 6.80434,59.5902 -2.58307,23.9138 -10.1776,47.837 -17.7957,66.3426 -11.2559,27.3402 -26.55,53.8619 -44.3504,78.5386 -19.0228,26.374 -40.8024,50.5926 -63.4784,71.4071 -29.9256,27.4689 -67.4481,54.3012 -108.24,72.5575 -35.1343,15.7228 -72.776,25.1209 -110.439,23.3941 -58.1008,-2.66339 -103.454,-31.8603 -138.789,-72.0756 -32.8784,-37.4185 -56.6091,-84.215 -73.5969,-126.685l-15.1618 -37.9028 -148.687 0 -15.1618 37.9028c-16.9878,42.4701 -40.7185,89.2666 -73.5969,126.685 -35.3351,40.2154 -80.6883,69.4123 -138.789,72.0756 -37.6654,1.72677 -75.3048,-7.67127 -110.439,-23.3941 -40.7918,-18.2563 -78.3154,-45.0886 -108.241,-72.5575 -22.676,-20.8146 -44.4544,-45.0331 -63.4772,-71.406 -17.8004,-24.678 -33.0945,-51.1985 -44.3504,-78.5398 -7.61812,-18.5055 -15.2126,-42.4288 -17.7957,-66.3426 -2.2004,-20.348 -0.822048,-41.0303 6.80434,-59.5902 12.3591,-30.0744 39.8599,-48.6189 72.143,-59.8607 41.824,-14.563 92.1166,-16.9937 120.987,-16.9937z"/>
  <path class="fil0" d="M1725.18 1191.02c-3.45118,17.3268 7.79764,34.174 25.1244,37.6252 17.3268,3.45118 34.174,-7.79764 37.6252,-25.1244 29.3929,-146.972 -108.181,-327.919 -291.305,-478.858 -101.797,-83.9056 -217.823,-159.148 -326.126,-213.86 -110.314,-55.7256 -213.966,-90.6142 -288.653,-92.5772 -55.0701,-1.44803 -96.9402,14.4532 -119.277,51.6437l-0.0874016 -0.0519685c-5.50276,9.17127 -5.87245,19.9925 -1.95,29.1225 29.263,90.9579 -13.8768,126.956 -81.3131,149.433 -28.7268,9.5752 -63.1808,17.4839 -98.7473,25.6477 -47.0528,10.8 -96.0072,22.0358 -142.369,39.8681 -148.171,56.9882 -253.031,170.973 -126.23,500.656 6.28229,16.4291 24.6957,24.6567 41.1248,18.3744 16.4291,-6.28229 24.6567,-24.6957 18.3744,-41.1248 -107.697,-280.012 -26.9044,-373.642 89.4816,-418.406 41.1945,-15.8445 88.4505,-26.6906 133.87,-37.1162 36.3803,-8.34922 71.6209,-16.4398 104.497,-27.3981 98.7568,-32.9173 162.951,-85.3796 126.298,-215.214 11.5276,-8.68229 30.4181,-12.3248 54.8292,-11.6835 64.8473,1.70433 158.922,34.0571 261.403,85.8261 104.492,52.7859 216.342,125.304 314.377,206.11 166.755,137.447 293.104,296.861 269.055,417.108z"/>
 </g>
 <rect class="fil1" width="2048" height="2048"/>
</svg>
