<?xml version="1.0" encoding="UTF-8"?>
<!DOCTYPE svg PUBLIC "-//W3C//DTD SVG 1.1//EN" "http://www.w3.org/Graphics/SVG/1.1/DTD/svg11.dtd">
<!-- Creator: CorelDRAW -->
<svg xmlns="http://www.w3.org/2000/svg" xml:space="preserve" width="2048px" height="2048px" style="shape-rendering:geometricPrecision; text-rendering:geometricPrecision; image-rendering:optimizeQuality; fill-rule:evenodd; clip-rule:evenodd"
viewBox="0 0 2048 2048"
 xmlns:xlink="http://www.w3.org/1999/xlink">
 <defs>
  <style type="text/css">
   <![CDATA[
    .fil1 {fill:none}
    .fil0 {fill:#424242;fill-rule:nonzero}
   ]]>
  </style>
 </defs>
 <g id="Layer_x0020_1">
  <metadata id="CorelCorpID_0Corel-Layer"/>
  <path class="fil0" d="M1024 255.998c212.073,0 404.074,85.9631 543.056,224.946 138.983,138.982 224.946,330.983 224.946,543.056 0,212.073 -85.9631,404.074 -224.946,543.056 -138.982,138.983 -330.983,224.946 -543.056,224.946 -212.073,0 -404.074,-85.9631 -543.056,-224.946 -138.983,-138.982 -224.946,-330.983 -224.946,-543.056 0,-212.073 85.9631,-404.074 224.946,-543.056 138.982,-138.983 330.983,-224.946 543.056,-224.946zm452.552 315.45c-115.815,-115.815 -275.817,-187.449 -452.552,-187.449 -176.734,0 -336.736,71.6339 -452.552,187.449 -115.815,115.815 -187.449,275.817 -187.449,452.552 0,176.734 71.6339,336.736 187.449,452.552 115.815,115.815 275.817,187.449 452.552,187.449 176.734,0 336.736,-71.6339 452.552,-187.449 115.815,-115.815 187.449,-275.817 187.449,-452.552 0,-176.734 -71.6339,-336.736 -187.449,-452.552z"/>
  <path class="fil0" d="M1114.09 508.854c-15.7854,0 -28.5827,12.7973 -28.5827,28.5815 0,15.7854 12.7973,28.5827 28.5827,28.5827l85.7457 0c15.7843,0 28.5827,-12.7973 28.5827,-28.5827 0,-15.7843 -12.7984,-28.5815 -28.5827,-28.5815l-85.7457 0z"/>
  <path class="fil0" d="M1303.31 680.344c-15.7854,0 -28.5827,12.7973 -28.5827,28.5827 0,15.7843 12.7973,28.5827 28.5827,28.5827l85.7457 0c15.7843,0 28.5815,-12.7984 28.5815,-28.5827 0,-15.7854 -12.7973,-28.5827 -28.5815,-28.5827l-85.7457 0z"/>
  <path class="fil0" d="M629.846 711.175c-15.7854,0 -28.5827,12.7973 -28.5827,28.5827 0,15.7854 12.7973,28.5827 28.5827,28.5827l85.7457 0c15.7843,0 28.5815,-12.7973 28.5815,-28.5827 0,-15.7854 -12.7973,-28.5827 -28.5815,-28.5827l-85.7457 0z"/>
  <path class="fil0" d="M509.529 956.813c-15.7854,0 -28.5827,12.7973 -28.5827,28.5815 0,15.7854 12.7973,28.5827 28.5827,28.5827l85.7457 0c15.7843,0 28.5815,-12.7973 28.5815,-28.5827 0,-15.7843 -12.7973,-28.5815 -28.5815,-28.5815l-85.7457 0z"/>
  <path class="fil0" d="M595.275 1254.23c-15.7854,0 -28.5827,12.7973 -28.5827,28.5827 0,15.7854 12.7973,28.5827 28.5827,28.5827l85.7446 0c15.7854,0 28.5827,-12.7973 28.5827,-28.5827 0,-15.7854 -12.7973,-28.5827 -28.5827,-28.5827l-85.7446 0z"/>
  <path class="fil0" d="M1352.69 1139.9c-15.7854,0 -28.5827,12.7973 -28.5827,28.5827 0,15.7843 12.7973,28.5815 28.5827,28.5815l85.7457 0c15.7843,0 28.5815,-12.7973 28.5815,-28.5815 0,-15.7854 -12.7973,-28.5827 -28.5815,-28.5827l-85.7457 0z"/>
  <path class="fil0" d="M1152.62 1482.88c-15.7854,0 -28.5827,12.7973 -28.5827,28.5827 0,15.7843 12.7973,28.5827 28.5827,28.5827l85.7446 0c15.7854,0 28.5827,-12.7984 28.5827,-28.5827 0,-15.7854 -12.7973,-28.5827 -28.5827,-28.5827l-85.7446 0z"/>
  <path class="fil0" d="M795.347 1511.46c-15.7854,0 -28.5827,12.7973 -28.5827,28.5815 0,15.7854 12.7973,28.5827 28.5827,28.5827l85.7457 0c15.7843,0 28.5815,-12.7973 28.5815,-28.5827 0,-15.7843 -12.7973,-28.5815 -28.5815,-28.5815l-85.7457 0z"/>
  <path class="fil0" d="M1452.73 911.244c-15.7843,0 -28.5815,12.7973 -28.5815,28.5827 0,15.7843 12.7973,28.5815 28.5815,28.5815l85.7457 0c15.7854,0 28.5827,-12.7973 28.5827,-28.5815 0,-15.7854 -12.7973,-28.5827 -28.5827,-28.5827l-85.7457 0z"/>
  <path class="fil0" d="M740.815 555.519c-15.724,1.17165 -27.5209,14.8689 -26.3492,30.5929 1.17047,15.724 14.8677,27.5197 30.5918,26.3492l19.663 -1.51299c23.2819,-1.79055 40.2225,-7.50591 52.7894,-13.8591 0.201969,1.54488 0.488977,3.23386 0.879922,5.08465 3.20315,15.1914 7.41497,35.152 13.1055,59.9764 17.7567,77.4709 42.4229,77.1071 89.9623,76.4044 16.5496,-0.244488 37.6737,-0.5563 64.3229,8.01851 14.9835,4.80945 31.0299,-3.43937 35.8394,-18.4228 4.80945,-14.9835 -3.43937,-31.0299 -18.4228,-35.8394 -35.4048,-11.3917 -61.7623,-11.0032 -82.4103,-10.6984 -17.2642,0.255118 -26.224,0.387402 -33.6898,-32.191 -5.8689,-25.6028 -9.85513,-44.4898 -12.8847,-58.8579 -7.3819,-34.989 -10.4327,-49.441 -22.5343,-58.617 -19.9299,-15.1099 -29.3858,-7.78465 -45.4996,4.67835 -7.21772,5.58071 -19.9122,15.398 -45.7004,17.3811l-19.663 1.51299z"/>
  <path class="fil0" d="M593.152 827.076c-15.7228,1.17165 -27.5197,14.8689 -26.3492,30.5929 1.17165,15.7228 14.8689,27.5197 30.5929,26.3492l19.663 -1.51299c23.2819,-1.79055 40.2225,-7.50591 52.7882,-13.8591 0.20315,1.54488 0.490158,3.23386 0.879922,5.08465 3.20433,15.1914 7.41615,35.152 13.1055,59.9764 3.51496,15.3543 18.8126,24.9508 34.1658,21.437 15.3532,-3.51496 24.9496,-18.8126 21.4358,-34.1658 -5.86772,-25.6028 -9.85394,-44.4898 -12.8835,-58.8579 -7.38308,-34.989 -10.4339,-49.441 -22.5343,-58.617 -19.9299,-15.1099 -29.3858,-7.78465 -45.4996,4.67835 -7.21772,5.58071 -19.9122,15.398 -45.7016,17.3811l-19.663 1.51299z"/>
  <path class="fil0" d="M1479.19 855.436c15.724,1.17047 29.4213,-10.6252 30.5929,-26.3492 1.17047,-15.724 -10.6264,-29.4213 -26.3492,-30.5929l-19.663 -1.51181c-25.7894,-1.98425 -38.4839,-11.8016 -45.7016,-17.3811 -16.1138,-12.4642 -25.5697,-19.7894 -45.4996,-4.67953 -12.1004,9.17599 -15.1512,23.628 -22.5343,58.617 -3.02953,14.3681 -7.01575,33.2551 -12.8835,58.8579 -3.51496,15.3532 6.08268,30.6508 21.4358,34.1658 15.3532,3.51378 30.6508,-6.08268 34.1658,-21.437 5.68937,-24.8244 9.90119,-44.7851 13.1055,-59.9764 0.389764,-1.85079 0.676772,-3.53977 0.878741,-5.08465 12.5669,6.35315 29.5075,12.0685 52.7894,13.8591l19.663 1.51299z"/>
  <path class="fil0" d="M1337.3 1318.99c15.724,1.17047 29.4213,-10.6252 30.5918,-26.3492 1.17165,-15.724 -10.6252,-29.4213 -26.3492,-30.5918l-19.663 -1.51299c-25.7894,-1.98307 -38.4827,-11.8004 -45.7004,-17.3811 -16.1138,-12.4618 -25.5744,-19.7858 -45.4996,-4.67953 -12.1039,9.17717 -15.1524,23.628 -22.5343,58.617 -3.03071,14.3681 -7.01575,33.2551 -12.8847,58.8579 -3.51378,15.3543 6.08268,30.652 21.437,34.1658 15.3532,3.51378 30.6508,-6.08268 34.1646,-21.437 5.69056,-24.8244 9.90237,-44.7851 13.1055,-59.9752 0.390945,-1.85197 0.677953,-3.54095 0.879922,-5.08583 12.5669,6.35315 29.5063,12.0685 52.7894,13.8591l19.663 1.51299z"/>
  <path class="fil0" d="M746.101 1323.33c-15.724,1.17165 -27.5197,14.8689 -26.3492,30.5929 1.17165,15.7228 14.8689,27.5197 30.5929,26.3492l19.663 -1.51299c23.2819,-1.79055 40.2225,-7.50591 52.7882,-13.8591 0.20315,1.54488 0.490158,3.23386 0.879922,5.08465 3.20433,15.1914 7.41497,35.152 13.1055,59.9764 3.51378,15.3532 18.8114,24.9508 34.1658,21.437 15.3532,-3.51496 24.9496,-18.8126 21.4358,-34.1658 -5.8689,-25.6028 -9.85394,-44.4898 -12.8835,-58.8579 -7.38308,-34.989 -10.4315,-49.4398 -22.5343,-58.617 -19.9264,-15.1063 -29.387,-7.78347 -45.4996,4.67835 -7.21772,5.58071 -19.9122,15.398 -45.7016,17.3811l-19.663 1.51299z"/>
  <path class="fil0" d="M928.288 923.695c43.4091,-43.4091 92.8831,-73.3725 137.778,-86.7178 50.5264,-15.0213 96.6237,-9.46772 126.312,20.2193 29.687,29.687 35.2418,75.7855 20.2205,126.312 -13.3453,44.8937 -43.3087,94.369 -86.7178,137.778l-0.00354331 0.00354331c-43.4091,43.4091 -92.8843,73.3701 -137.777,86.7166 -50.5276,15.0213 -96.6202,9.46536 -126.308,-20.2205l-0.0011811 -0.0011811c-29.687,-29.687 -35.2429,-75.7843 -20.2217,-126.311 13.3465,-44.8937 43.3087,-94.3702 86.719,-137.779z"/>
  <path class="fil0" d="M851.773 1117.57c15.7854,0 28.5827,-12.7973 28.5827,-28.5827 0,-15.7854 -12.7973,-28.5827 -28.5827,-28.5827l-48.3615 0c-15.7843,0 -28.5827,12.7973 -28.5827,28.5827 0,15.7854 12.7984,28.5827 28.5827,28.5827l48.3615 0z"/>
  <path class="fil0" d="M860.11 1074.57c14.4898,6.16536 31.2366,-0.583465 37.402,-15.0721 6.16536,-14.4898 -0.583465,-31.2366 -15.0732,-37.402l-44.3953 -18.8917c-14.4886,-6.16536 -31.2366,0.583465 -37.4008,15.0721 -6.16536,14.4898 0.583465,31.2378 15.0721,37.402l44.3953 18.8917z"/>
  <path class="fil0" d="M874.355 1019.96c10.9736,11.2831 29.0209,11.5335 40.3051,0.558662 11.2831,-10.9736 11.5335,-29.0209 0.558662,-40.3051l-33.6992 -34.5272c-10.9748,-11.2843 -29.0209,-11.5335 -40.3051,-0.559843 -11.2831,10.9748 -11.5335,29.0221 -0.558662,40.3051l33.6992 34.5284z"/>
  <path class="fil0" d="M918.277 967.533c10.9748,11.2843 29.0221,11.5335 40.3051,0.559843 11.2843,-10.9748 11.5335,-29.0221 0.558662,-40.3051l-33.6981 -34.5284c-10.9748,-11.2843 -29.0221,-11.5335 -40.3051,-0.559843 -11.2843,10.9748 -11.5335,29.0221 -0.558662,40.3051l33.6981 34.5284z"/>
  <path class="fil0" d="M1058.83 853.347c0,15.7854 12.7973,28.5827 28.5827,28.5827 15.7854,0 28.5827,-12.7973 28.5827,-28.5827l0 -48.3615c0,-15.7854 -12.7973,-28.5827 -28.5827,-28.5827 -15.7854,0 -28.5827,12.7973 -28.5827,28.5827l0 48.3615z"/>
  <path class="fil0" d="M1020.53 884.014c6.16536,14.4898 22.9122,21.2374 37.402,15.0732 14.4898,-6.16536 21.2374,-22.9122 15.0732,-37.402l-18.8929 -44.3953c-6.16418,-14.4898 -22.9122,-21.2374 -37.4008,-15.0732 -14.4898,6.16536 -21.2386,22.9122 -15.0732,37.402l18.8917 44.3953z"/>
  <path class="fil0" d="M978.636 916.794c11.2831,10.9748 29.3303,10.7244 40.304,-0.559843 10.9748,-11.2831 10.7244,-29.3303 -0.558662,-40.304l-34.5284 -33.6992c-11.2831,-10.9748 -29.3303,-10.7244 -40.3051,0.558662 -10.9736,11.2843 -10.7244,29.3303 0.559843,40.3051l34.5284 33.6992z"/>
  <path class="fil0" d="M989.169 1197.8c0,-15.7854 -12.7973,-28.5827 -28.5827,-28.5827 -15.7854,0 -28.5827,12.7973 -28.5827,28.5827l0 48.3615c0,15.7843 12.7973,28.5827 28.5827,28.5827 15.7854,0 28.5827,-12.7984 28.5827,-28.5827l0 -48.3615z"/>
  <path class="fil0" d="M1027.47 1167.14c-6.16536,-14.4898 -22.9122,-21.2386 -37.402,-15.0732 -14.4886,6.16536 -21.2374,22.9122 -15.0721,37.402l18.8917 44.3953c6.16418,14.4898 22.9122,21.2374 37.402,15.0721 14.4886,-6.16418 21.2374,-22.911 15.0721,-37.4008l-18.8917 -44.3953z"/>
  <path class="fil0" d="M1069.36 1134.36c-11.2843,-10.9748 -29.3303,-10.7244 -40.3051,0.558662 -10.9748,11.2843 -10.7244,29.3315 0.558662,40.3051l34.5284 33.6992c11.2831,10.9748 29.3303,10.7244 40.3051,-0.558662 10.9748,-11.2843 10.7244,-29.3303 -0.559843,-40.3051l-34.5272 -33.6992z"/>
  <path class="fil0" d="M1121.79 1090.43c-11.2831,-10.9748 -29.3303,-10.7256 -40.3051,0.558662 -10.9736,11.2831 -10.7244,29.3303 0.559843,40.3051l34.5284 33.6981c11.2831,10.9748 29.3303,10.7256 40.3051,-0.558662 10.9736,-11.2831 10.7244,-29.3303 -0.559843,-40.3051l-34.5284 -33.6981z"/>
  <path class="fil0" d="M1196.23 933.692c-15.724,0 -28.4705,12.7465 -28.4705,28.4705 0,15.724 12.7465,28.4705 28.4705,28.4705l48.3626 -0.0011811c15.724,0 28.4705,-12.7465 28.4705,-28.4705 0,-15.724 -12.7465,-28.4705 -28.4705,-28.4705l-48.3626 0.0011811z"/>
  <path class="fil0" d="M1187.89 976.575c-14.4898,-6.16418 -31.2366,0.583465 -37.402,15.0732 -6.16418,14.4898 0.583465,31.2366 15.0732,37.402l44.3953 18.8906c14.4898,6.16536 31.2366,-0.583465 37.402,-15.0732 6.16418,-14.4886 -0.583465,-31.2366 -15.0732,-37.4008l-44.3953 -18.8917z"/>
  <path class="fil0" d="M1173.65 1031.19c-10.9748,-11.2831 -29.0221,-11.5335 -40.3051,-0.558662 -11.2843,10.9736 -11.5335,29.0209 -0.559843,40.304l33.6992 34.5284c10.9748,11.2843 29.0209,11.5335 40.3051,0.559843 11.2831,-10.9748 11.5335,-29.0221 0.558662,-40.3051l-33.6981 -34.5284z"/>
  <path class="fil0" d="M1107.98 846.258c-6.41221,14.3658 0.0354331,31.213 14.4024,37.6252 14.3658,6.41221 31.213,-0.0354331 37.6252,-14.4024l17.4992 -39.2197c6.41221,-14.3669 -0.0366142,-31.2142 -14.4024,-37.6252 -14.3658,-6.41221 -31.213,0.0354331 -37.6252,14.4012l-17.4992 39.2209z"/>
  <path class="fil0" d="M1180.09 889.57c-14.3669,6.41221 -20.8146,23.2595 -14.4024,37.6252 6.41221,14.3669 23.2595,20.8146 37.6252,14.4024l39.2197 -17.5004c14.3658,-6.41221 20.8134,-23.2595 14.4012,-37.6252 -6.41103,-14.3658 -23.2583,-20.8134 -37.6252,-14.4024l-39.2185 17.5004z"/>
  <path class="fil0" d="M867.908 1161.58c14.3658,-6.41221 20.8134,-23.2595 14.4012,-37.6264 -6.41103,-14.3658 -23.2595,-20.8134 -37.6252,-14.4012l-39.2209 17.4992c-14.3658,6.41221 -20.8134,23.2595 -14.4012,37.6252 6.41221,14.3658 23.2595,20.8134 37.6252,14.4024l39.2209 -17.4992z"/>
  <path class="fil0" d="M940.024 1204.89c6.41221,-14.3658 -0.0354331,-31.2142 -14.4012,-37.6252 -14.3669,-6.41221 -31.2142,0.0354331 -37.6264,14.4012l-17.5004 39.2197c-6.41103,14.3669 0.0366142,31.2142 14.4024,37.6252 14.3658,6.41221 31.2142,-0.0354331 37.6252,-14.4012l17.5004 -39.2197z"/>
  <path class="fil0" d="M1153.4 855.757c-11.1602,11.1602 -11.1602,29.2571 0,40.4174 11.1602,11.1602 29.2571,11.1602 40.4174,0l30.926 -30.9272c11.1602,-11.1602 11.1602,-29.2559 0,-40.4162 -11.1602,-11.1602 -29.2559,-11.1602 -40.4162,0l-30.9272 30.926z"/>
  <path class="fil0" d="M829.424 1179.73c-11.1602,11.1602 -11.1602,29.2571 0,40.4174 11.1602,11.1602 29.2571,11.1602 40.4174,0l30.926 -30.9272c11.1602,-11.1602 11.1602,-29.2559 0,-40.4162 -11.1602,-11.1602 -29.2559,-11.1602 -40.4162,0l-30.9272 30.926z"/>
 </g>
 <rect class="fil1" width="2048" height="2048"/>
</svg>
