<?xml version="1.0" encoding="UTF-8"?>
<!DOCTYPE svg PUBLIC "-//W3C//DTD SVG 1.1//EN" "http://www.w3.org/Graphics/SVG/1.1/DTD/svg11.dtd">
<!-- Creator: CorelDRAW -->
<svg xmlns="http://www.w3.org/2000/svg" xml:space="preserve" width="2048px" height="2048px" style="shape-rendering:geometricPrecision; text-rendering:geometricPrecision; image-rendering:optimizeQuality; fill-rule:evenodd; clip-rule:evenodd"
viewBox="0 0 2048 2048"
 xmlns:xlink="http://www.w3.org/1999/xlink">
 <defs>
  <style type="text/css">
   <![CDATA[
    .fil2 {fill:none}
    .fil1 {fill:#424242}
    .fil0 {fill:#424242;fill-rule:nonzero}
   ]]>
  </style>
 </defs>
 <g id="Layer_x0020_1">
  <metadata id="CorelCorpID_0Corel-Layer"/>
  <path class="fil0" d="M1157.1 303.153c31.4339,31.4339 47.1532,72.6319 47.1532,113.828 0,41.1945 -15.7193,82.3926 -47.1532,113.828 -31.4339,31.4339 -72.6343,47.152 -113.828,47.152 -41.1957,0 -82.3938,-15.7181 -113.828,-47.152l-0.0011811 -0.0011811c-31.4339,-31.4339 -47.152,-72.6331 -47.152,-113.826 0,-41.1957 15.7181,-82.3926 47.152,-113.826l0.0011811 -0.0011811 0.0011811 -0.0011811c31.4339,-31.4339 72.6331,-47.152 113.826,-47.152 41.1945,0 82.3902,15.7181 113.826,47.152l0.0011811 0.0011811z"/>
  <path class="fil1" d="M1209.4 515.23l323.373 323.373c-13.7917,8.17087 -26.6386,18.104 -38.2075,29.6729 -11.5665,11.5677 -21.4996,24.4122 -29.6681,38.2028l-323.373 -323.373c13.7917,-8.16969 26.6374,-18.104 38.2051,-29.6717 11.5677,-11.5677 21.5008,-24.4122 29.6705,-38.204z"/>
  <path class="fil0" d="M1744.85 890.901l0.00236221 0.00236221c31.4327,31.4339 47.1508,72.6308 47.1508,113.825 0,41.1933 -15.7181,82.3902 -47.1508,113.824l-0.00236221 0.00236221 -0.00236221 0.00236221c-31.4339,31.4327 -72.6308,47.1508 -113.825,47.1508 -41.1933,0 -82.3902,-15.7181 -113.824,-47.1508l-0.00236221 -0.00236221 -0.00236221 -0.00236221c-31.4327,-31.4339 -47.1508,-72.6308 -47.1508,-113.825 0,-41.1933 15.7181,-82.3902 47.1508,-113.824l0.00236221 -0.00236221 0.00236221 -0.00236221c31.4339,-31.4327 72.6308,-47.1508 113.825,-47.1508 41.1933,0 82.3902,15.7181 113.824,47.1508l0.00236221 0.00236221z"/>
  <path class="fil0" d="M967.855 678.273c23.4685,23.4697 35.2051,54.2304 35.2051,84.9851 0,30.7547 -11.7366,61.5154 -35.2051,84.9851 -23.4697,23.4685 -54.2304,35.2051 -84.9851,35.2051 -30.7547,0 -61.5154,-11.7366 -84.9851,-35.2051 -23.4697,-23.4697 -35.2051,-54.2304 -35.2051,-84.9851 0,-30.7547 11.7354,-61.5154 35.2051,-84.9851 23.4697,-23.4697 54.2292,-35.2063 84.9851,-35.2063 30.7559,0 61.5154,11.7366 84.9851,35.2063z"/>
  <path class="fil1" d="M1018.95 831.462l197.589 197.589c-14.4236,7.23662 -27.7406,16.8012 -39.4099,28.4705 -11.6669,11.6681 -21.2303,24.9827 -28.4658,39.4051l-197.589 -197.589c14.4225,-7.23544 27.7406,-16.7988 39.4087,-28.467 11.6681,-11.6681 21.2315,-24.9862 28.467,-39.4087z"/>
  <path class="fil0" d="M1369.73 1080.15l0.00236221 0.00236221c23.4697,23.4697 35.204,54.2268 35.204,84.9827 0,30.7536 -11.7343,61.5119 -35.204,84.9816l-0.00236221 0.00236221 -0.00236221 0.00236221c-23.4697,23.4697 -54.2268,35.204 -84.9827,35.204 -30.7536,0 -61.5119,-11.7343 -84.9816,-35.204l-0.00236221 -0.00236221 -0.00236221 -0.00236221c-23.4697,-23.4697 -35.204,-54.2268 -35.204,-84.9827 0,-30.7536 11.7343,-61.5119 35.204,-84.9816l0.00236221 -0.00236221 0.00236221 -0.00236221c23.4697,-23.4697 54.2268,-35.204 84.9827,-35.204 30.7536,0 61.5119,11.7343 84.9816,35.204l0.00236221 0.00236221z"/>
  <path class="fil0" d="M650.419 809.833c31.4339,31.4339 47.152,72.6319 47.152,113.828 0,41.1933 -15.7181,82.3914 -47.152,113.828 -31.4351,31.4339 -72.6331,47.1532 -113.828,47.1532 -41.1957,0 -82.3938,-15.7193 -113.828,-47.1532l-0.0011811 -0.0011811c-31.4339,-31.4339 -47.152,-72.6331 -47.152,-113.826 0,-41.1957 15.7181,-82.3926 47.152,-113.826l0.0011811 -0.0011811 0.0011811 -0.0011811c31.4339,-31.4339 72.6331,-47.152 113.826,-47.152 41.1945,0 82.3902,15.7181 113.826,47.152l0.0011811 0.0011811z"/>
  <path class="fil1" d="M702.717 1021.91l323.373 323.373c-13.7917,8.16969 -26.6386,18.1051 -38.2075,29.674 -11.5665,11.5665 -21.4984,24.411 -29.6681,38.2016l-323.373 -323.373c13.7917,-8.16969 26.6374,-18.1028 38.2051,-29.6717 11.5677,-11.5677 21.502,-24.4122 29.6705,-38.204z"/>
  <path class="fil0" d="M1238.17 1397.58c31.4339,31.4339 47.1532,72.6319 47.1532,113.828 0,41.1945 -15.7193,82.3926 -47.1532,113.826l-0.0011811 0.0011811c-31.4339,31.4339 -72.6331,47.152 -113.826,47.152 -41.1957,0 -82.3926,-15.7181 -113.826,-47.152l-0.0011811 -0.0011811 -0.00236221 -0.00236221c-31.4327,-31.4339 -47.1508,-72.6308 -47.1508,-113.825 0,-41.1933 15.7181,-82.3902 47.1508,-113.824l0.00236221 -0.00236221 0.0011811 -0.0011811c31.4339,-31.4339 72.6331,-47.152 113.826,-47.152 41.1945,0 82.3902,15.7181 113.826,47.152l0.0011811 0.0011811z"/>
  <path class="fil0" d="M461.174 1184.95c23.4697,23.4697 35.2063,54.2292 35.2063,84.9851 0,30.7559 -11.7366,61.5154 -35.2063,84.9851l-0.00236221 0.00236221c-23.4697,23.4697 -54.2268,35.204 -84.9827,35.204 -30.7536,0 -61.5119,-11.7343 -84.9816,-35.204l-0.00236221 -0.00236221c-23.4697,-23.4697 -35.2063,-54.2292 -35.2063,-84.9851 0,-30.7559 11.7366,-61.5154 35.2063,-84.9851 23.4685,-23.4685 54.228,-35.2051 84.9839,-35.2051 30.7547,0 61.5154,11.7366 84.9851,35.2051z"/>
  <path class="fil1" d="M512.269 1338.14l197.589 197.59c-14.4236,7.23544 -27.7406,16.7988 -39.4087,28.467 -11.6681,11.6681 -21.2315,24.9862 -28.467,39.4087l-197.589 -197.589c14.4225,-7.23544 27.7394,-16.8 39.4075,-28.4681 11.6681,-11.6693 21.2315,-24.9851 28.4681,-39.4087z"/>
  <path class="fil0" d="M863.048 1586.83c23.4697,23.4697 35.2063,54.2292 35.2063,84.9851 0,30.7559 -11.7366,61.5154 -35.2063,84.9851 -23.4697,23.4697 -54.2304,35.2051 -84.9851,35.2051 -30.7547,0 -61.5154,-11.7354 -84.9851,-35.2051 -23.4697,-23.4697 -35.2051,-54.2304 -35.2051,-84.9851 0,-30.7547 11.7354,-61.5154 35.2051,-84.9851 23.4697,-23.4697 54.2292,-35.2063 84.9851,-35.2063 30.7559,0 61.5154,11.7366 84.9851,35.2063z"/>
 </g>
 <rect class="fil2" width="2048" height="2048"/>
</svg>
