<?xml version="1.0" encoding="UTF-8"?>
<!DOCTYPE svg PUBLIC "-//W3C//DTD SVG 1.1//EN" "http://www.w3.org/Graphics/SVG/1.1/DTD/svg11.dtd">
<!-- Creator: CorelDRAW -->
<svg xmlns="http://www.w3.org/2000/svg" xml:space="preserve" width="2048px" height="2048px" style="shape-rendering:geometricPrecision; text-rendering:geometricPrecision; image-rendering:optimizeQuality; fill-rule:evenodd; clip-rule:evenodd"
viewBox="0 0 2048 2048"
 xmlns:xlink="http://www.w3.org/1999/xlink">
 <defs>
  <style type="text/css">
   <![CDATA[
    .fil1 {fill:none}
    .fil0 {fill:#424242;fill-rule:nonzero}
   ]]>
  </style>
 </defs>
 <g id="Layer_x0020_1">
  <metadata id="CorelCorpID_0Corel-Layer"/>
  <path class="fil0" d="M1024 333.401c-614.097,625.08 -616.658,1036.96 -412.171,1241.05 102.562,102.364 257.116,153.547 412.171,153.547 155.055,0 309.609,-51.1831 412.171,-153.547 204.487,-204.091 201.926,-615.971 -412.171,-1241.05zm-457.171 1286.3c-229.384,-228.939 -235.879,-681.631 432.76,-1352.39 0.570473,-0.670867 1.17165,-1.32638 1.80591,-1.95945 12.5091,-12.4843 32.7709,-12.4642 45.2552,0.0448819l-22.65 22.6051 22.6252 -22.5c670.464,671.763 664.137,1125.06 434.546,1354.2 -115.088,114.866 -286.382,172.298 -457.171,172.298 -170.789,0 -342.083,-57.4323 -457.171,-172.298z"/>
  <path class="fil0" d="M1086.49 976.196c0,-35.517 9.93072,-63.1819 29.6894,-82.9394 19.8118,-19.8118 47.3729,-29.6929 82.6879,-29.6929 36.2244,0 64.1434,9.72993 83.7509,29.1827 19.5543,19.4067 29.3847,46.6654 29.3847,81.6757 0,25.4315 -4.30512,46.3063 -12.8681,62.5713 -8.563,16.265 -20.9256,28.9288 -37.089,37.9973 -16.2118,9.06969 -36.3248,13.5791 -60.4926,13.5791 -24.5232,0 -44.8418,-3.89882 -60.952,-11.7047 -16.0595,-7.85197 -29.0823,-20.2146 -39.1146,-37.1362 -9.98032,-16.9217 -14.9965,-38.1012 -14.9965,-63.5327zm67.2851 0.301181c0,21.9886 4.05355,37.7469 12.2114,47.3729 8.1567,9.5752 19.3016,14.3906 33.3366,14.3906 14.4378,0 25.6358,-4.71378 33.5386,-14.0858 7.90631,-9.42402 11.9102,-26.2961 11.9102,-50.6138 0,-20.5193 -4.15866,-35.4674 -12.4169,-44.9422 -8.25709,-9.4252 -19.4528,-14.1354 -33.6425,-14.1354 -13.5248,0 -24.4181,4.76457 -32.6256,14.3906 -8.20867,9.5752 -12.3118,25.4847 -12.3118,47.6233z"/>
  <polygon class="fil0" points="735.999,867.265 803.234,867.265 803.234,943.415 876.748,943.415 876.748,867.265 944.285,867.265 944.285,1084.87 876.748,1084.87 876.748,996.867 803.234,996.867 803.234,1084.87 735.999,1084.87 "/>
  <path class="fil0" d="M1082.2 1161.7l-112.856 0c1.29213,-11.1591 5.23347,-21.626 11.7898,-31.461 6.55749,-9.80434 18.8516,-21.4051 36.8835,-34.7705 11.0339,-8.16497 18.0638,-14.4071 21.1524,-18.6307 3.08977,-4.2567 4.63465,-8.29134 4.63465,-12.1051 0,-4.13032 -1.54488,-7.66064 -4.57087,-10.5921 -3.05788,-2.90079 -6.90473,-4.38189 -11.5063,-4.38189 -4.82363,0 -8.73308,1.51299 -11.791,4.53898 -3.02599,2.99528 -5.0752,8.32205 -6.14646,15.9827l-37.6713 -3.05788c1.4811,-10.5921 4.19292,-18.8516 8.13308,-24.8091 3.94016,-5.92678 9.48898,-10.4976 16.676,-13.65 7.1563,-3.18425 17.0858,-4.75985 29.7898,-4.75985 13.2095,0 23.5169,1.51299 30.8941,4.50709 7.34528,3.02717 13.1457,7.66064 17.3386,13.9028 4.22363,6.27284 6.33544,13.2709 6.33544,21.026 0,8.25946 -2.42717,16.141 -7.24961,23.6433 -4.82363,7.50237 -13.6193,15.7618 -26.354,24.7465 -7.59804,5.23229 -12.6413,8.89016 -15.1949,11.002 -2.55355,2.07992 -5.57953,4.82244 -9.01654,8.19568l58.7292 0 0 30.6733z"/>
  <path class="fil0" d="M502.441 1426.01c3.21024,1.63937 3.77835,2.01969 0.155906,0.408662 1.27323,3.45118 2.54646,6.90119 3.89882,10.2945l0.0720473 0.178347c1.78583,4.47166 3.64016,8.8878 5.56182,13.2579l0.0767717 0.177165c1.9252,4.37126 3.9189,8.69056 5.97874,12.9602l0.0708662 0.148819c2.06457,4.27677 4.19646,8.50158 6.39331,12.6756l0.0625985 0.120473c2.20276,4.18465 4.47284,8.31851 6.80552,12.4004l0.0413386 0.0732284c2.32677,4.07008 4.71733,8.08701 7.1693,12.0555l0.100394 0.161811c2.45315,3.96496 4.96772,7.88032 7.54253,11.7413l0.0649607 0.0980316c2.57835,3.86693 5.22048,7.68071 7.91812,11.4461l0.080315 0.112205c2.70236,3.76772 5.46496,7.48583 8.28308,11.1496l0.056693 0.0744095c2.83229,3.67914 5.72245,7.30749 8.66812,10.8839l0.0141732 0.0188977c5.90315,7.16457 12.0319,14.1213 18.3732,20.8701l0.0318898 0.0354331 0.0307087 0.0318898c3.16772,3.37087 6.38859,6.68859 9.66261,9.95552 105.393,105.19 264.213,157.786 423.548,157.786 159.336,0 318.155,-52.5957 423.548,-157.786 3.22323,-3.21614 6.39331,-6.48544 9.51497,-9.80316l0.328347 -0.350788c3.07796,-3.27756 6.1063,-6.60473 9.08268,-9.9815l0.309449 -0.35315c2.98229,-3.39095 5.91378,-6.82914 8.78977,-10.3181l0.129921 -0.155906c2.87953,-3.49725 5.70473,-7.04764 8.4756,-10.6441l0.340158 -0.444095c2.75315,-3.58347 5.45315,-7.213 8.09528,-10.8945l0.214961 -0.302362c2.64213,-3.68859 5.22756,-7.42678 7.75631,-11.2134l0.185433 -0.275197c2.52402,-3.78898 4.99016,-7.62875 7.39843,-11.5169l0.307087 -0.498426c2.41181,-3.90709 4.76811,-7.86142 7.05827,-11.8677l0.0696851 -0.124016c2.28543,-4.0004 4.50827,-8.05276 6.66969,-12.1524l0.261024 -0.493701c2.14252,-4.07481 4.22244,-8.19922 6.23977,-12.3721l0.22441 -0.466536c2.01614,-4.18347 3.96969,-8.41654 5.85709,-12.698l0.11811 -0.266929c1.89095,-4.29685 3.71339,-8.64568 5.47087,-13.0417l0.226772 -0.56693c1.74921,-4.39252 3.43583,-8.83347 5.04922,-13.324l0.131102 -0.368504c1.61339,-4.49882 3.15709,-9.04725 4.63229,-13.6441l0.111024 -0.344882c1.47165,-4.59685 2.8689,-9.24568 4.2,-13.9429l0.172441 -0.611811c1.32638,-4.7126 2.58425,-9.47127 3.76654,-14.2843l0.0590552 -0.242126c1.17874,-4.81654 2.28543,-9.6815 3.31654,-14.5961l0.101575 -0.477166c5.22993,-25.0264 8.52048,-51.3437 9.69331,-78.9449 -311.114,-152.655 -464.592,-59.4721 -612.05,30.0981 -125.238,76.0749 -245.643,149.175 -478.026,26.9858 4.68662,29.3906 11.9327,57.1217 21.5079,83.1686zm1129.15 -82.7505c0.18189,-0.975591 0.32126,-1.95236 0.413386,-2.9315 -0.129921,0.981497 -0.277559,1.95236 -0.413386,2.9315zm-72.2693 10.0701c-6.11693,-3.10748 -9.39331,-4.79882 0,0z"/>
 </g>
 <rect class="fil1" width="2048" height="2048"/>
</svg>
