<?xml version="1.0" encoding="utf-8"?>
<!-- Generator: Adobe Illustrator 13.0.0, SVG Export Plug-In . SVG Version: 6.00 Build 14948)  -->
<!DOCTYPE svg PUBLIC "-//W3C//DTD SVG 1.1//EN" "http://www.w3.org/Graphics/SVG/1.1/DTD/svg11.dtd">
<svg version="1.1" xmlns="http://www.w3.org/2000/svg" xmlns:xlink="http://www.w3.org/1999/xlink" x="0px" y="0px"
	 width="421.966px" height="166.137px" viewBox="0 0 421.966 166.137" enable-background="new 0 0 421.966 166.137"
	 xml:space="preserve">
<g id="Layer_5">
	<path fill="#F6A90F" d="M38.776,90.628c0,0-1.75-43,36-51.75v39h4.75V39.003c0,0,0.125-3.375,4.125-3.375c0,0,4,0.5,3.75,4.25
		v37.833h0.792l-3.333,22.167h-0.833l-4.167-20.833l-6.833,18.917H32.443c0,0-0.5-6.167,3.667-6.834L38.776,90.628z"/>
	<path fill="#F6A90F" d="M92.026,77.628"/>
	<path fill="#F6A90F" d="M95.609,97.712l-4.083-19.917l0.5-0.167l0.083-38.75c0,0,16.792,0.25,30.167,23.25c0,0,7.125,15,6.5,28.75
		h1.875c0,0,4.25,1,4.125,6.5L95.609,97.712z"/>
</g>
<g id="Layer_6">
	<path fill="#EBCA24" d="M32.776,94.962h41.333l1.417-4.084h-36.75C38.776,90.878,33.443,89.962,32.776,94.962z"/>
	<path fill="#EBCA24" d="M95.026,95.212h39.5c0,0-0.5-3.75-4.083-4.25H94.276L95.026,95.212z"/>
	<polygon fill="#EBCA24" points="82.276,91.045 86.276,91.045 85.443,95.295 83.026,95.295 	"/>
</g>
<g id="Layer_8">
	<polygon fill="#FFFFFF" points="19.693,97.962 72.693,97.962 80.276,78.128 84.359,100.628 89.276,68.628 95.859,97.128 
		152.193,96.962 139.401,105.253 91.901,105.128 91.026,104.462 84.776,147.503 77.401,105.628 76.151,106.378 21.859,106.462 	"/>
</g>
<g id="Layer_2">
	<path fill="#1E405A" d="M69.276,147.378c0,0-44-9-50.5-56.25c0,0-8.25-47,42-68.75c0,0,38.5-15.5,68,15c0,0,19.75,14.25,19.75,50
		c0,0,13.75-5.25,17-9c0,0,1.5-51.75-55.75-73.75c0,0-38.5-16-76.25,11.5c0,0-39.5,27.75-32.75,77.5c0,0,3.25,54.75,65.75,70.25
		L69.276,147.378z"/>
	<path fill="#1E405A" d="M120.276,29.878c0,0,29.25,19,28.25,57.5c0,0,11.25-15.25,11.25-17.25s-10.5-15.75-11.5-20.25
		s-8.5-15.5-9.25-16.25S120.276,29.878,120.276,29.878z"/>
	<polygon fill="#1E405A" points="21.276,104.753 76.651,104.753 78.026,100.878 84.526,136.128 84.651,111.503 79.776,83.961 
		73.901,99.753 19.401,99.753 	"/>
	<polygon fill="#1E405A" points="84.443,111.795 89.776,76.878 94.401,98.753 91.651,103.503 90.526,97.253 84.776,136.878 
		77.776,99.003 81.526,94.878 	"/>
	<polygon fill="#1E405A" points="94.776,98.962 151.651,98.878 147.276,103.878 91.901,104.087 89.276,95.545 90.692,81.128 	"/>
</g>
<g id="Layer_3">
	<path fill="#157637" d="M77.026,163.128c0,0,0.25-34.25,29.5-48.5c0,0,18-5.75,26.75-9s30.75-11.25,37.75-26
		c0,0-5.75,92-90.5,86.25c0,0,42.25-12.5,67-50.75C147.526,115.128,112.776,153.628,77.026,163.128z"/>
</g>
<g id="Layer_4">
	<radialGradient id="SVGID_1_" cx="109.5259" cy="124.6279" r="39.4604" gradientUnits="userSpaceOnUse">
		<stop  offset="0.2198" style="stop-color:#4EA224"/>
		<stop  offset="0.7802" style="stop-color:#2C8830"/>
	</radialGradient>
	<path fill="url(#SVGID_1_)" d="M77.026,163.378c0,0-1-44,43.25-53.25c0,0,42-12.25,50.75-30.5
		C171.026,79.628,145.026,140.128,77.026,163.378z"/>
</g>
<g id="Layer_7">
	<g>
		<path fill="#1E405A" d="M203.036,53.021v14.842h33.32v17.784h-33.32v14.842h42.188v17.784h-61.953V35.109h61.953v17.912H203.036z"
			/>
		<path fill="#1E405A" d="M334.925,35.109v83.164h-19.764V87.823H279.18v30.451h-19.765V35.109h19.765V69.91h35.981V35.109H334.925z
			"/>
		<path fill="#1E405A" d="M348.738,92.557h21.411c0,0.128,0.887,11.387,15.457,11.387c7.854,0,14.949-4.733,14.949-9.852
			c0-10.619-19.131-11.387-24.578-12.539c-9.629-1.919-25.973-6.269-25.973-22.006c0-14.714,15.584-26.741,34.588-26.741
			c23.185,0,34.587,11.899,34.587,23.03h-20.397c0-2.047-3.421-6.397-14.189-6.397c-7.222,0-13.177,4.478-13.177,10.108
			c0,6.781,12.797,6.781,17.357,7.549c11.529,2.175,33.193,4.99,33.193,26.996c0,14.33-16.723,26.356-36.36,26.356
			C360.394,120.448,348.738,103.815,348.738,92.557z"/>
	</g>
	<g>
		<path fill="#1E405A" d="M189.432,140.789h-5.322l-1.239,4.302h-2.892l5.201-15.894h3.305l5.177,15.894h-2.989L189.432,140.789z
			 M188.8,138.578l-0.559-1.944c-0.243-0.843-0.486-1.71-0.729-2.601c-0.243-0.891-0.478-1.774-0.705-2.649h-0.097
			c-0.227,0.892-0.454,1.778-0.681,2.661c-0.227,0.884-0.47,1.746-0.729,2.589l-0.559,1.944H188.8z"/>
		<path fill="#1E405A" d="M194.73,133.158h2.309l0.194,1.604h0.097c0.535-0.518,1.114-0.963,1.738-1.336
			c0.624-0.373,1.349-0.56,2.175-0.56c1.28,0,2.211,0.41,2.795,1.228c0.583,0.818,0.874,1.989,0.874,3.512v7.485h-2.794v-7.121
			c0-0.987-0.146-1.685-0.438-2.09c-0.292-0.404-0.77-0.607-1.434-0.607c-0.519,0-0.977,0.126-1.374,0.377s-0.847,0.619-1.349,1.105
			v8.336h-2.795V133.158z"/>
		<path fill="#1E405A" d="M207.221,141.883c0-1.279,0.559-2.269,1.677-2.965s2.9-1.183,5.347-1.458c0-0.308-0.04-0.604-0.121-0.888
			c-0.082-0.283-0.207-0.534-0.377-0.753s-0.389-0.389-0.656-0.511c-0.268-0.121-0.604-0.182-1.009-0.182
			c-0.6,0-1.179,0.113-1.737,0.34c-0.559,0.228-1.098,0.503-1.616,0.826l-1.021-1.871c0.664-0.421,1.405-0.785,2.224-1.094
			c0.817-0.308,1.705-0.462,2.661-0.462c1.507,0,2.625,0.442,3.354,1.325c0.729,0.883,1.094,2.159,1.094,3.827v7.072h-2.284
			l-0.219-1.313h-0.073c-0.534,0.454-1.105,0.835-1.713,1.143c-0.608,0.308-1.269,0.462-1.981,0.462c-1.053,0-1.907-0.32-2.563-0.96
			C207.549,143.782,207.221,142.937,207.221,141.883z M209.943,141.664c0,0.535,0.158,0.924,0.475,1.167
			c0.315,0.242,0.725,0.364,1.227,0.364c0.486,0,0.932-0.113,1.337-0.341c0.405-0.227,0.826-0.55,1.264-0.972v-2.673
			c-0.811,0.097-1.49,0.227-2.041,0.389c-0.552,0.162-0.993,0.344-1.325,0.547c-0.332,0.202-0.57,0.434-0.717,0.692
			C210.016,141.098,209.943,141.372,209.943,141.664z"/>
		<path fill="#1E405A" d="M219.834,127.933h2.795v14.242c0,0.34,0.064,0.579,0.194,0.717c0.129,0.138,0.267,0.206,0.413,0.206
			c0.064,0,0.125,0,0.182,0s0.142-0.016,0.256-0.048l0.364,2.09c-0.373,0.161-0.867,0.243-1.482,0.243
			c-1.005,0-1.71-0.3-2.114-0.899c-0.405-0.6-0.607-1.418-0.607-2.455V127.933z"/>
		<path fill="#1E405A" d="M225.97,147.679c0.154,0.041,0.305,0.062,0.45,0.062c0.632,0,1.138-0.191,1.519-0.571
			c0.381-0.381,0.669-0.871,0.863-1.471l0.219-0.753l-4.69-11.787h2.843l2.066,5.856c0.178,0.52,0.352,1.066,0.522,1.641
			c0.17,0.575,0.344,1.146,0.522,1.714h0.097c0.146-0.551,0.296-1.114,0.45-1.689c0.153-0.575,0.304-1.13,0.449-1.665l1.799-5.856
			h2.697l-4.326,12.467c-0.243,0.681-0.51,1.288-0.802,1.823c-0.292,0.534-0.628,0.992-1.009,1.373s-0.818,0.672-1.313,0.875
			c-0.494,0.202-1.065,0.304-1.713,0.304c-0.324,0-0.607-0.021-0.851-0.061c-0.243-0.041-0.479-0.102-0.705-0.183l0.511-2.188
			C225.683,147.602,225.817,147.639,225.97,147.679z"/>
		<path fill="#1E405A" d="M237.649,135.37h-1.701v-2.091l1.847-0.121l0.34-3.257h2.334v3.257h3.037v2.212h-3.037v5.687
			c0,1.394,0.559,2.09,1.677,2.09c0.21,0,0.425-0.024,0.644-0.073c0.219-0.048,0.417-0.112,0.596-0.194l0.486,2.066
			c-0.325,0.113-0.693,0.214-1.106,0.304c-0.413,0.089-0.854,0.134-1.324,0.134c-0.697,0-1.284-0.105-1.762-0.316
			c-0.479-0.21-0.867-0.506-1.167-0.887s-0.519-0.835-0.656-1.361s-0.206-1.113-0.206-1.762V135.37z"/>
		<path fill="#1E405A" d="M246.81,131.068c-0.502,0-0.915-0.146-1.239-0.438c-0.324-0.292-0.486-0.672-0.486-1.143
			c0-0.47,0.162-0.854,0.486-1.154s0.737-0.449,1.239-0.449s0.915,0.149,1.239,0.449s0.486,0.685,0.486,1.154
			c0,0.471-0.162,0.851-0.486,1.143C247.725,130.922,247.312,131.068,246.81,131.068z M245.401,133.158h2.795v11.933h-2.795V133.158
			z"/>
		<path fill="#1E405A" d="M250.382,139.137c0-0.988,0.162-1.871,0.486-2.649c0.324-0.777,0.762-1.434,1.313-1.968
			c0.551-0.535,1.187-0.944,1.907-1.228s1.479-0.426,2.272-0.426c0.778,0,1.454,0.134,2.029,0.401s1.065,0.596,1.471,0.984
			l-1.337,1.774c-0.324-0.275-0.648-0.49-0.972-0.645c-0.324-0.153-0.673-0.23-1.045-0.23c-0.973,0-1.759,0.36-2.357,1.081
			c-0.6,0.721-0.899,1.689-0.899,2.904c0,1.199,0.295,2.159,0.887,2.88s1.357,1.081,2.297,1.081c0.486,0,0.936-0.101,1.349-0.304
			c0.413-0.202,0.781-0.441,1.105-0.717l1.167,1.774c-0.567,0.502-1.19,0.883-1.871,1.142c-0.681,0.26-1.361,0.39-2.042,0.39
			c-0.81,0-1.567-0.139-2.272-0.413c-0.704-0.275-1.316-0.681-1.834-1.216c-0.52-0.534-0.924-1.19-1.216-1.968
			C250.529,141.008,250.382,140.125,250.382,139.137z"/>
		<path fill="#1E405A" d="M261.027,141.883c0-1.279,0.559-2.269,1.677-2.965s2.9-1.183,5.347-1.458c0-0.308-0.04-0.604-0.121-0.888
			c-0.082-0.283-0.207-0.534-0.377-0.753s-0.389-0.389-0.656-0.511c-0.268-0.121-0.604-0.182-1.009-0.182
			c-0.6,0-1.179,0.113-1.737,0.34c-0.559,0.228-1.098,0.503-1.616,0.826l-1.021-1.871c0.664-0.421,1.405-0.785,2.224-1.094
			c0.817-0.308,1.705-0.462,2.661-0.462c1.507,0,2.625,0.442,3.354,1.325c0.729,0.883,1.094,2.159,1.094,3.827v7.072h-2.284
			l-0.219-1.313h-0.073c-0.534,0.454-1.105,0.835-1.713,1.143c-0.608,0.308-1.269,0.462-1.981,0.462c-1.053,0-1.907-0.32-2.563-0.96
			C261.355,143.782,261.027,142.937,261.027,141.883z M263.749,141.664c0,0.535,0.158,0.924,0.475,1.167
			c0.315,0.242,0.725,0.364,1.227,0.364c0.486,0,0.932-0.113,1.337-0.341c0.405-0.227,0.826-0.55,1.264-0.972v-2.673
			c-0.811,0.097-1.49,0.227-2.041,0.389c-0.552,0.162-0.993,0.344-1.325,0.547c-0.332,0.202-0.57,0.434-0.717,0.692
			C263.822,141.098,263.749,141.372,263.749,141.664z"/>
		<path fill="#1E405A" d="M273.64,127.933h2.795v14.242c0,0.34,0.064,0.579,0.194,0.717c0.129,0.138,0.267,0.206,0.413,0.206
			c0.064,0,0.125,0,0.182,0s0.142-0.016,0.256-0.048l0.364,2.09c-0.373,0.161-0.867,0.243-1.482,0.243
			c-1.005,0-1.71-0.3-2.114-0.899c-0.405-0.6-0.607-1.418-0.607-2.455V127.933z"/>
		<path fill="#1E405A" d="M284.746,141.13c0.567,0.534,1.215,0.968,1.944,1.3s1.466,0.498,2.212,0.498
			c0.891,0,1.575-0.186,2.054-0.559c0.478-0.373,0.717-0.867,0.717-1.482c0-0.324-0.062-0.6-0.183-0.826
			c-0.121-0.228-0.292-0.426-0.511-0.596s-0.481-0.328-0.789-0.474c-0.309-0.146-0.641-0.292-0.997-0.438l-2.163-0.948
			c-0.389-0.162-0.777-0.364-1.166-0.607s-0.733-0.535-1.033-0.875s-0.543-0.737-0.729-1.19c-0.187-0.454-0.28-0.973-0.28-1.556
			c0-0.632,0.134-1.219,0.401-1.762s0.636-1.017,1.105-1.422s1.029-0.721,1.678-0.948c0.647-0.227,1.36-0.34,2.139-0.34
			c0.939,0,1.838,0.183,2.697,0.547c0.858,0.364,1.596,0.854,2.211,1.47l-1.458,1.799c-0.502-0.421-1.032-0.753-1.592-0.996
			c-0.559-0.243-1.179-0.365-1.858-0.365c-0.763,0-1.365,0.167-1.811,0.499c-0.446,0.332-0.669,0.789-0.669,1.373
			c0,0.308,0.069,0.57,0.207,0.789c0.137,0.219,0.323,0.413,0.559,0.584c0.234,0.17,0.506,0.324,0.814,0.462
			c0.308,0.138,0.623,0.271,0.947,0.4l2.139,0.899c0.47,0.194,0.903,0.422,1.301,0.681c0.396,0.259,0.736,0.559,1.021,0.899
			c0.283,0.34,0.502,0.732,0.656,1.178c0.153,0.446,0.23,0.96,0.23,1.544c0,0.648-0.13,1.256-0.389,1.822
			c-0.26,0.567-0.636,1.065-1.13,1.495c-0.494,0.429-1.094,0.77-1.799,1.021c-0.704,0.251-1.503,0.377-2.394,0.377
			c-1.069,0-2.099-0.203-3.087-0.608c-0.988-0.404-1.863-0.979-2.624-1.725L284.746,141.13z"/>
		<path fill="#1E405A" d="M295.779,139.137c0-0.988,0.154-1.871,0.462-2.649c0.308-0.777,0.725-1.434,1.252-1.968
			c0.526-0.535,1.13-0.944,1.811-1.228s1.393-0.426,2.139-0.426c0.745,0,1.462,0.143,2.15,0.426s1.292,0.692,1.811,1.228
			c0.519,0.534,0.936,1.19,1.252,1.968c0.315,0.778,0.474,1.661,0.474,2.649s-0.158,1.871-0.474,2.649
			c-0.316,0.777-0.733,1.434-1.252,1.968c-0.519,0.535-1.122,0.94-1.811,1.216c-0.688,0.274-1.405,0.413-2.15,0.413
			c-0.746,0-1.458-0.139-2.139-0.413c-0.681-0.275-1.284-0.681-1.811-1.216c-0.527-0.534-0.944-1.19-1.252-1.968
			C295.933,141.008,295.779,140.125,295.779,139.137z M298.647,139.137c0,1.199,0.247,2.159,0.741,2.88s1.179,1.081,2.054,1.081
			s1.563-0.36,2.065-1.081s0.754-1.681,0.754-2.88c0-1.215-0.252-2.184-0.754-2.904s-1.19-1.081-2.065-1.081s-1.56,0.36-2.054,1.081
			S298.647,137.922,298.647,139.137z"/>
		<path fill="#1E405A" d="M309.292,127.933h2.795v14.242c0,0.34,0.064,0.579,0.194,0.717c0.129,0.138,0.267,0.206,0.413,0.206
			c0.064,0,0.125,0,0.182,0s0.142-0.016,0.256-0.048l0.364,2.09c-0.373,0.161-0.867,0.243-1.482,0.243
			c-1.005,0-1.71-0.3-2.114-0.899c-0.405-0.6-0.607-1.418-0.607-2.455V127.933z"/>
		<path fill="#1E405A" d="M315.148,133.158h2.795v7.121c0,0.988,0.146,1.685,0.438,2.09s0.762,0.607,1.409,0.607
			c0.519,0,0.977-0.13,1.374-0.389c0.396-0.259,0.821-0.681,1.275-1.264v-8.166h2.795v11.933h-2.284l-0.219-1.75h-0.073
			c-0.519,0.616-1.081,1.11-1.689,1.482c-0.607,0.373-1.324,0.56-2.15,0.56c-1.28,0-2.212-0.409-2.795-1.228
			s-0.875-1.988-0.875-3.512V133.158z"/>
		<path fill="#1E405A" d="M328.588,135.37h-1.701v-2.091l1.847-0.121l0.34-3.257h2.334v3.257h3.037v2.212h-3.037v5.687
			c0,1.394,0.559,2.09,1.677,2.09c0.21,0,0.425-0.024,0.644-0.073c0.219-0.048,0.417-0.112,0.596-0.194l0.486,2.066
			c-0.325,0.113-0.693,0.214-1.106,0.304c-0.413,0.089-0.854,0.134-1.324,0.134c-0.697,0-1.284-0.105-1.762-0.316
			c-0.479-0.21-0.867-0.506-1.167-0.887s-0.519-0.835-0.656-1.361s-0.206-1.113-0.206-1.762V135.37z"/>
		<path fill="#1E405A" d="M337.75,131.068c-0.502,0-0.915-0.146-1.239-0.438c-0.324-0.292-0.486-0.672-0.486-1.143
			c0-0.47,0.162-0.854,0.486-1.154s0.737-0.449,1.239-0.449s0.915,0.149,1.239,0.449s0.486,0.685,0.486,1.154
			c0,0.471-0.162,0.851-0.486,1.143C338.665,130.922,338.251,131.068,337.75,131.068z M336.34,133.158h2.795v11.933h-2.795V133.158z
			"/>
		<path fill="#1E405A" d="M341.322,139.137c0-0.988,0.154-1.871,0.462-2.649c0.308-0.777,0.725-1.434,1.252-1.968
			c0.526-0.535,1.13-0.944,1.811-1.228s1.393-0.426,2.139-0.426c0.745,0,1.462,0.143,2.15,0.426s1.292,0.692,1.811,1.228
			c0.519,0.534,0.936,1.19,1.252,1.968c0.315,0.778,0.474,1.661,0.474,2.649s-0.158,1.871-0.474,2.649
			c-0.316,0.777-0.733,1.434-1.252,1.968c-0.519,0.535-1.122,0.94-1.811,1.216c-0.688,0.274-1.405,0.413-2.15,0.413
			c-0.746,0-1.458-0.139-2.139-0.413c-0.681-0.275-1.284-0.681-1.811-1.216c-0.527-0.534-0.944-1.19-1.252-1.968
			C341.476,141.008,341.322,140.125,341.322,139.137z M344.19,139.137c0,1.199,0.247,2.159,0.741,2.88s1.179,1.081,2.054,1.081
			s1.563-0.36,2.065-1.081s0.754-1.681,0.754-2.88c0-1.215-0.252-2.184-0.754-2.904s-1.19-1.081-2.065-1.081s-1.56,0.36-2.054,1.081
			S344.19,137.922,344.19,139.137z"/>
		<path fill="#1E405A" d="M354.834,133.158h2.309l0.194,1.604h0.097c0.535-0.518,1.114-0.963,1.738-1.336
			c0.623-0.373,1.349-0.56,2.175-0.56c1.28,0,2.212,0.41,2.795,1.228c0.583,0.818,0.875,1.989,0.875,3.512v7.485h-2.795v-7.121
			c0-0.987-0.146-1.685-0.438-2.09c-0.292-0.404-0.77-0.607-1.434-0.607c-0.519,0-0.977,0.126-1.373,0.377
			c-0.397,0.251-0.847,0.619-1.349,1.105v8.336h-2.795V133.158z"/>
		<path fill="#1E405A" d="M367.958,141.932c0.535,0.421,1.065,0.749,1.592,0.984c0.526,0.234,1.098,0.353,1.714,0.353
			c0.647,0,1.126-0.134,1.434-0.401s0.462-0.611,0.462-1.033c0-0.243-0.073-0.457-0.219-0.644c-0.146-0.187-0.341-0.353-0.584-0.498
			c-0.242-0.146-0.519-0.28-0.826-0.401s-0.615-0.247-0.923-0.377c-0.389-0.146-0.786-0.315-1.191-0.51s-0.766-0.43-1.081-0.705
			c-0.316-0.275-0.575-0.596-0.778-0.96c-0.202-0.364-0.304-0.798-0.304-1.3c0-1.054,0.39-1.912,1.167-2.576
			s1.839-0.997,3.184-0.997c0.826,0,1.571,0.146,2.236,0.438c0.664,0.292,1.239,0.624,1.725,0.997l-1.288,1.701
			c-0.421-0.308-0.847-0.555-1.275-0.741c-0.43-0.187-0.879-0.28-1.349-0.28c-0.6,0-1.041,0.126-1.325,0.377
			c-0.283,0.252-0.425,0.563-0.425,0.936c0,0.228,0.068,0.426,0.207,0.596c0.137,0.17,0.319,0.324,0.546,0.462
			c0.228,0.138,0.49,0.264,0.79,0.377s0.611,0.227,0.936,0.34c0.405,0.146,0.811,0.313,1.216,0.498
			c0.404,0.187,0.773,0.417,1.105,0.692c0.332,0.276,0.6,0.612,0.802,1.009c0.202,0.397,0.304,0.871,0.304,1.422
			c0,0.519-0.102,1.001-0.304,1.446s-0.498,0.834-0.887,1.166s-0.875,0.596-1.458,0.79c-0.584,0.194-1.248,0.292-1.993,0.292
			c-0.826,0-1.641-0.158-2.442-0.475c-0.802-0.315-1.494-0.708-2.078-1.179L367.958,141.932z"/>
		<path fill="#1E405A" d="M377.072,147.982c0.777-0.308,1.381-0.721,1.811-1.239c0.429-0.519,0.644-1.085,0.644-1.701h-0.219
			c-0.47,0-0.887-0.149-1.251-0.449c-0.365-0.3-0.547-0.725-0.547-1.276c0-0.518,0.182-0.936,0.547-1.251
			c0.364-0.316,0.806-0.475,1.324-0.475c0.664,0,1.179,0.252,1.543,0.754s0.547,1.207,0.547,2.114c0,1.199-0.328,2.235-0.984,3.11
			s-1.592,1.523-2.807,1.944L377.072,147.982z"/>
		<path fill="#1E405A" d="M388.372,129.197h2.818v15.894h-2.818V129.197z"/>
		<path fill="#1E405A" d="M394.326,133.158h2.309l0.194,1.604h0.097c0.535-0.518,1.114-0.963,1.738-1.336
			c0.623-0.373,1.349-0.56,2.175-0.56c1.28,0,2.212,0.41,2.795,1.228c0.583,0.818,0.875,1.989,0.875,3.512v7.485h-2.795v-7.121
			c0-0.987-0.146-1.685-0.438-2.09c-0.292-0.404-0.77-0.607-1.434-0.607c-0.519,0-0.977,0.126-1.373,0.377
			c-0.397,0.251-0.847,0.619-1.349,1.105v8.336h-2.795V133.158z"/>
		<path fill="#1E405A" d="M406.549,139.137c0-0.988,0.162-1.871,0.486-2.649c0.324-0.777,0.762-1.434,1.313-1.968
			c0.551-0.535,1.187-0.944,1.907-1.228s1.479-0.426,2.272-0.426c0.778,0,1.454,0.134,2.029,0.401s1.065,0.596,1.471,0.984
			l-1.337,1.774c-0.324-0.275-0.648-0.49-0.972-0.645c-0.324-0.153-0.673-0.23-1.045-0.23c-0.973,0-1.759,0.36-2.357,1.081
			c-0.6,0.721-0.899,1.689-0.899,2.904c0,1.199,0.295,2.159,0.887,2.88s1.357,1.081,2.297,1.081c0.486,0,0.936-0.101,1.349-0.304
			c0.413-0.202,0.781-0.441,1.105-0.717l1.167,1.774c-0.567,0.502-1.19,0.883-1.871,1.142c-0.681,0.26-1.361,0.39-2.042,0.39
			c-0.81,0-1.567-0.139-2.272-0.413c-0.704-0.275-1.316-0.681-1.834-1.216c-0.52-0.534-0.924-1.19-1.216-1.968
			C406.696,141.008,406.549,140.125,406.549,139.137z"/>
		<path fill="#1E405A" d="M417.705,143.487c0-0.551,0.174-1.005,0.522-1.361c0.348-0.356,0.781-0.535,1.3-0.535
			s0.948,0.179,1.288,0.535c0.341,0.356,0.511,0.811,0.511,1.361s-0.17,1.004-0.511,1.36c-0.34,0.356-0.77,0.535-1.288,0.535
			s-0.952-0.179-1.3-0.535C417.878,144.491,417.705,144.038,417.705,143.487z"/>
	</g>
</g>
</svg>
