<?xml version="1.0" encoding="UTF-8"?>
<!DOCTYPE svg PUBLIC "-//W3C//DTD SVG 1.1//EN" "http://www.w3.org/Graphics/SVG/1.1/DTD/svg11.dtd">
<!-- Creator: CorelDRAW -->
<svg xmlns="http://www.w3.org/2000/svg" xml:space="preserve" width="2048px" height="2048px" style="shape-rendering:geometricPrecision; text-rendering:geometricPrecision; image-rendering:optimizeQuality; fill-rule:evenodd; clip-rule:evenodd"
viewBox="0 0 2048 2048"
 xmlns:xlink="http://www.w3.org/1999/xlink">
 <defs>
  <style type="text/css">
   <![CDATA[
    .fil2 {fill:none}
    .fil0 {fill:#424242}
    .fil1 {fill:#424242;fill-rule:nonzero}
   ]]>
  </style>
 </defs>
 <g id="Layer_x0020_1">
  <metadata id="CorelCorpID_0Corel-Layer"/>
  <g id="_291383184">
   <path id="_472863016" class="fil0" d="M949.555 1569.7c5.55355,3.18307 11.2925,6.00473 17.1803,8.44725 18.3543,7.61339 38.0988,11.6457 58.1611,11.6457 19.4669,0 38.6752,-3.81614 56.6292,-11.0469 5.97402,-2.40591 11.7933,-5.19213 17.4225,-8.34095l-74.9481 -104.927 -74.4449 104.222z"/>
   <path id="_476374904" class="fil1" d="M812.933 1160.44l229.803 172.354 0.0720473 -0.0980316c13.8496,10.3866 16.6559,30.0366 6.27048,43.8863 -0.329528,0.438189 -0.668504,0.864568 -1.01457,1.2815l-143.64 201.093 0.0401575 0.0980316c-10.063,14.0882 -29.6421,17.3504 -43.7292,7.28859 -4.6689,-3.33425 -8.14489,-7.71497 -10.3465,-12.5941l-143.784 -258.812 -0.0968505 0.0401575c-5.72599,-10.3087 -5.01969,-22.4504 0.793701,-31.8024l56.7095 -113.415 -0.119291 -0.0602363c7.74213,-15.4843 26.5725,-21.7606 42.0567,-14.0185 2.59488,1.29685 4.92993,2.9067 6.98504,4.75867z"/>
   <path id="_476634208" class="fil1" d="M1005.26 1332.79l229.803 -172.354c2.05512,-1.85197 4.39016,-3.46181 6.98504,-4.75867 15.4843,-7.74213 34.3146,-1.46575 42.0567,14.0185l-0.119291 0.0602363 56.7095 113.415c5.81339,9.35198 6.51969,21.4937 0.793701,31.8024l-0.0968505 -0.0401575 -143.784 258.812c-2.20158,4.87914 -5.67756,9.25985 -10.3465,12.5941 -14.087,10.0618 -33.6662,6.79961 -43.7292,-7.28859l0.0401575 -0.0980316 -143.64 -201.093c-0.346063,-0.416929 -0.68504,-0.843308 -1.01457,-1.2815 -10.3854,-13.8496 -7.57914,-33.4996 6.27048,-43.8863l0.0720473 0.0980316z"/>
   <path id="_476627344" class="fil1" d="M1039.67 1620.54l0 171.465 711.886 0 0 -248.817c0,-63.9934 -26.1591,-122.151 -68.302,-164.294 -42.1418,-42.1418 -100.299,-68.3008 -164.294,-68.3008 -69.4796,0 -108.625,-10.1362 -143.576,-21.6721 2.52874,13.9193 0.712205,28.3075 -6.49371,41.2807l-13.6606 24.5941 -0.0980316 -0.0413386 -130.123 234.221c-5.02323,9.04135 -11.0256,16.8059 -19.5284,22.8792 -28.1658,20.1177 -67.3371,13.5898 -87.4572,-14.5772l-0.826772 -1.15866 -2.94685 1.64882c-6.78308,3.79488 -13.8071,7.15867 -21.0177,10.063 -17.1343,6.89882 -35.1969,11.2004 -53.5619,12.7087zm-108.352 -25.1528l-1.35 1.89095c-20.1201,28.167 -59.2914,34.6949 -87.4572,14.5772 -8.50276,-6.07323 -14.5051,-13.8378 -19.5284,-22.8792l-130.123 -234.221 -0.0980316 0.0413386 -13.6606 -24.5941c-7.25552,-13.063 -9.04607,-27.5575 -6.44056,-41.5654 -11.0906,3.3 -22.4079,6.49607 -34.3618,9.39922 -14.6232,3.55276 -30.554,6.66733 -48.8823,8.97048 -17.9114,2.25 -37.7492,3.58701 -60.3851,3.58701 -63.9957,0 -122.154,26.1579 -164.295,68.3008 -42.1429,42.1418 -68.3008,100.299 -68.3008,164.294l0 248.817 711.886 0 0 -171.619c-18.4028,-1.68898 -36.4831,-6.17717 -53.5996,-13.2768 -7.12678,-2.9563 -14.0634,-6.36851 -20.7579,-10.2059l-2.64567 -1.51654z"/>
   <path id="_118062808" class="fil1" d="M663.11 767.766c0.0437008,11.6858 0.257481,23.4059 0.467717,34.9028 0.154725,8.50276 0.307087,16.8331 0.307087,34.1244 0,99.0639 40.5048,189.102 105.76,254.356 65.2548,65.2548 155.291,105.76 254.355,105.76 99.0639,0 189.101,-40.5048 254.355,-105.76 65.2548,-65.2548 105.76,-155.293 105.76,-254.356 0,-17.2914 0.152362,-25.6217 0.307087,-34.1244 0.210236,-11.4969 0.424016,-23.2169 0.467717,-34.9028l-721.779 0z"/>
   <path id="_475796408" class="fil1" d="M1135.92 312.274c76.6548,21.8008 144.121,65.4142 195.243,123.715 63.0709,71.9233 101.304,166.083 101.304,269.085 0,17.3114 -14.0351,31.3477 -31.3477,31.3477l-273.595 0c5.33741,-9.22442 8.39528,-19.9299 8.39528,-31.3477l0 -392.8zm-215.437 424.147l-273.594 0c-17.3126,0 -31.3477,-14.0362 -31.3477,-31.3477 0,-103.002 38.2335,-197.163 101.304,-269.086 51.1241,-58.3004 118.59,-101.919 195.242,-123.719l0 392.805c0,11.4177 3.05788,22.1232 8.39528,31.3477z"/>
   <path id="_474462968" class="fil1" d="M974.778 255.999l98.4438 0c17.3114,0 31.3477,14.0351 31.3477,31.3477l0 417.727c0,17.3114 -14.0362,31.3477 -31.3477,31.3477l-98.4438 0c-17.3114,0 -31.3477,-14.0362 -31.3477,-31.3477l0 -417.727c0,-17.3126 14.0362,-31.3477 31.3477,-31.3477z"/>
   <path id="_474465008" class="fil1" d="M594.106 673.724c-17.3126,0 -31.3477,14.0351 -31.3477,31.3477 0,17.3114 14.0351,31.3477 31.3477,31.3477l859.788 0c17.3126,0 31.3477,-14.0362 31.3477,-31.3477 0,-17.3126 -14.0351,-31.3477 -31.3477,-31.3477l-859.788 0z"/>
  </g>
 </g>
 <rect class="fil2" width="2048" height="2048"/>
</svg>
